<mxfile host="app.diagrams.net" agent="Mozilla/5.0 (Windows NT 10.0; Win64; x64) AppleWebKit/537.36 (KHTML, like Gecko) Chrome/136.0.0.0 Safari/537.36" version="27.0.6" pages="2">
  <diagram name="Pagina-1" id="Gd_l73XNm0cPQ-0tlro3">
    <mxGraphModel dx="4599" dy="1079" grid="1" gridSize="10" guides="1" tooltips="1" connect="1" arrows="1" fold="1" page="1" pageScale="1" pageWidth="827" pageHeight="1169" math="0" shadow="0">
      <root>
        <mxCell id="0" />
        <mxCell id="1" parent="0" />
        <mxCell id="duCD_uY5v47mJ_seT25w-2" style="edgeStyle=orthogonalEdgeStyle;rounded=0;orthogonalLoop=1;jettySize=auto;html=1;exitX=0.25;exitY=0;exitDx=0;exitDy=0;endArrow=oval;endFill=1;" parent="1" edge="1">
          <mxGeometry relative="1" as="geometry">
            <mxPoint x="-369.94252873563215" y="469.08" as="targetPoint" />
            <mxPoint x="-370.00000000000006" y="489.08" as="sourcePoint" />
            <Array as="points">
              <mxPoint x="-370" y="479.08" />
              <mxPoint x="-370" y="479.08" />
            </Array>
          </mxGeometry>
        </mxCell>
        <mxCell id="duCD_uY5v47mJ_seT25w-3" value="UserID" style="edgeLabel;html=1;align=center;verticalAlign=middle;resizable=0;points=[];labelBackgroundColor=none;" parent="duCD_uY5v47mJ_seT25w-2" vertex="1" connectable="0">
          <mxGeometry x="0.8889" relative="1" as="geometry">
            <mxPoint y="-11" as="offset" />
          </mxGeometry>
        </mxCell>
        <mxCell id="duCD_uY5v47mJ_seT25w-4" style="edgeStyle=orthogonalEdgeStyle;rounded=0;orthogonalLoop=1;jettySize=auto;html=1;endArrow=oval;endFill=0;exitX=0.899;exitY=0.996;exitDx=0;exitDy=0;exitPerimeter=0;" parent="1" source="duCD_uY5v47mJ_seT25w-1" edge="1">
          <mxGeometry relative="1" as="geometry">
            <mxPoint x="-290" y="549.08" as="targetPoint" />
            <mxPoint x="-290.7" y="529.1" as="sourcePoint" />
            <Array as="points" />
          </mxGeometry>
        </mxCell>
        <mxCell id="duCD_uY5v47mJ_seT25w-5" value="Email" style="edgeLabel;html=1;align=center;verticalAlign=middle;resizable=0;points=[];labelBackgroundColor=none;" parent="duCD_uY5v47mJ_seT25w-4" vertex="1" connectable="0">
          <mxGeometry x="0.7323" y="-2" relative="1" as="geometry">
            <mxPoint x="2" y="14" as="offset" />
          </mxGeometry>
        </mxCell>
        <mxCell id="nkMpFI6Zw1iPEzCYwyhi-19" value="" style="edgeStyle=orthogonalEdgeStyle;rounded=0;orthogonalLoop=1;jettySize=auto;html=1;endArrow=none;startFill=0;" edge="1" parent="1" source="duCD_uY5v47mJ_seT25w-1" target="nkMpFI6Zw1iPEzCYwyhi-18">
          <mxGeometry relative="1" as="geometry" />
        </mxCell>
        <mxCell id="nkMpFI6Zw1iPEzCYwyhi-86" value="1" style="edgeLabel;html=1;align=center;verticalAlign=middle;resizable=0;points=[];labelBackgroundColor=none;" vertex="1" connectable="0" parent="nkMpFI6Zw1iPEzCYwyhi-19">
          <mxGeometry x="-0.6986" relative="1" as="geometry">
            <mxPoint x="5" y="1" as="offset" />
          </mxGeometry>
        </mxCell>
        <mxCell id="duCD_uY5v47mJ_seT25w-1" value="User" style="rounded=1;arcSize=10;whiteSpace=wrap;html=1;align=center;fillColor=none;" parent="1" vertex="1">
          <mxGeometry x="-380" y="489.08" width="100" height="40" as="geometry" />
        </mxCell>
        <mxCell id="duCD_uY5v47mJ_seT25w-6" style="edgeStyle=orthogonalEdgeStyle;rounded=0;orthogonalLoop=1;jettySize=auto;html=1;endArrow=oval;endFill=0;" parent="1" edge="1">
          <mxGeometry relative="1" as="geometry">
            <mxPoint x="-290" y="469.08" as="targetPoint" />
            <mxPoint x="-289.99999999999994" y="489.08" as="sourcePoint" />
          </mxGeometry>
        </mxCell>
        <mxCell id="duCD_uY5v47mJ_seT25w-7" value="PasswordHash" style="edgeLabel;html=1;align=center;verticalAlign=middle;resizable=0;points=[];labelBackgroundColor=none;" parent="duCD_uY5v47mJ_seT25w-6" vertex="1" connectable="0">
          <mxGeometry x="0.7323" y="-2" relative="1" as="geometry">
            <mxPoint x="18" y="-12" as="offset" />
          </mxGeometry>
        </mxCell>
        <mxCell id="duCD_uY5v47mJ_seT25w-10" style="edgeStyle=orthogonalEdgeStyle;rounded=0;orthogonalLoop=1;jettySize=auto;html=1;endArrow=oval;endFill=0;exitX=1;exitY=0.25;exitDx=0;exitDy=0;" parent="1" edge="1">
          <mxGeometry relative="1" as="geometry">
            <mxPoint x="-270" y="489.08" as="targetPoint" />
            <mxPoint x="-290.0000000000001" y="489.08" as="sourcePoint" />
          </mxGeometry>
        </mxCell>
        <mxCell id="duCD_uY5v47mJ_seT25w-12" value="FirstName" style="edgeLabel;html=1;align=center;verticalAlign=middle;resizable=0;points=[];labelBackgroundColor=none;" parent="duCD_uY5v47mJ_seT25w-10" vertex="1" connectable="0">
          <mxGeometry x="1" y="-3" relative="1" as="geometry">
            <mxPoint x="30" y="-3" as="offset" />
          </mxGeometry>
        </mxCell>
        <mxCell id="duCD_uY5v47mJ_seT25w-15" style="edgeStyle=orthogonalEdgeStyle;rounded=0;orthogonalLoop=1;jettySize=auto;html=1;endArrow=oval;endFill=0;exitX=1;exitY=0.25;exitDx=0;exitDy=0;" parent="1" edge="1">
          <mxGeometry relative="1" as="geometry">
            <mxPoint x="-269.9999999999999" y="529.08" as="targetPoint" />
            <mxPoint x="-290" y="529.08" as="sourcePoint" />
            <Array as="points">
              <mxPoint x="-280" y="529.08" />
              <mxPoint x="-280" y="529.08" />
            </Array>
          </mxGeometry>
        </mxCell>
        <mxCell id="duCD_uY5v47mJ_seT25w-16" value="LastName" style="edgeLabel;html=1;align=center;verticalAlign=middle;resizable=0;points=[];labelBackgroundColor=none;" parent="duCD_uY5v47mJ_seT25w-15" vertex="1" connectable="0">
          <mxGeometry x="1" y="-3" relative="1" as="geometry">
            <mxPoint x="30" y="-3" as="offset" />
          </mxGeometry>
        </mxCell>
        <mxCell id="duCD_uY5v47mJ_seT25w-17" style="edgeStyle=orthogonalEdgeStyle;rounded=0;orthogonalLoop=1;jettySize=auto;html=1;endArrow=oval;endFill=0;exitX=0.025;exitY=0.007;exitDx=0;exitDy=0;exitPerimeter=0;" parent="1" source="duCD_uY5v47mJ_seT25w-1" edge="1">
          <mxGeometry relative="1" as="geometry">
            <mxPoint x="-390" y="489.08" as="targetPoint" />
            <mxPoint x="-410" y="499.08" as="sourcePoint" />
          </mxGeometry>
        </mxCell>
        <mxCell id="duCD_uY5v47mJ_seT25w-18" value="CreatedAt" style="edgeLabel;html=1;align=center;verticalAlign=middle;resizable=0;points=[];labelBackgroundColor=none;" parent="duCD_uY5v47mJ_seT25w-17" vertex="1" connectable="0">
          <mxGeometry x="0.7323" y="-2" relative="1" as="geometry">
            <mxPoint x="-33" y="2" as="offset" />
          </mxGeometry>
        </mxCell>
        <mxCell id="duCD_uY5v47mJ_seT25w-19" style="edgeStyle=orthogonalEdgeStyle;rounded=0;orthogonalLoop=1;jettySize=auto;html=1;endArrow=oval;endFill=0;exitX=0.025;exitY=0.007;exitDx=0;exitDy=0;exitPerimeter=0;" parent="1" edge="1">
          <mxGeometry relative="1" as="geometry">
            <mxPoint x="-390" y="529.08" as="targetPoint" />
            <mxPoint x="-377" y="529.08" as="sourcePoint" />
          </mxGeometry>
        </mxCell>
        <mxCell id="duCD_uY5v47mJ_seT25w-20" value="LastLogin" style="edgeLabel;html=1;align=center;verticalAlign=middle;resizable=0;points=[];labelBackgroundColor=none;" parent="duCD_uY5v47mJ_seT25w-19" vertex="1" connectable="0">
          <mxGeometry x="0.7323" y="-2" relative="1" as="geometry">
            <mxPoint x="-32" y="2" as="offset" />
          </mxGeometry>
        </mxCell>
        <mxCell id="duCD_uY5v47mJ_seT25w-21" style="edgeStyle=orthogonalEdgeStyle;rounded=0;orthogonalLoop=1;jettySize=auto;html=1;exitX=0.25;exitY=0;exitDx=0;exitDy=0;endArrow=oval;endFill=1;" parent="1" edge="1">
          <mxGeometry relative="1" as="geometry">
            <mxPoint x="-369.94252873563215" y="209.08" as="targetPoint" />
            <mxPoint x="-370.00000000000006" y="229.08" as="sourcePoint" />
            <Array as="points">
              <mxPoint x="-370" y="219.08" />
              <mxPoint x="-370" y="219.08" />
            </Array>
          </mxGeometry>
        </mxCell>
        <mxCell id="duCD_uY5v47mJ_seT25w-22" value="AddressID" style="edgeLabel;html=1;align=center;verticalAlign=middle;resizable=0;points=[];labelBackgroundColor=none;" parent="duCD_uY5v47mJ_seT25w-21" vertex="1" connectable="0">
          <mxGeometry x="0.8889" relative="1" as="geometry">
            <mxPoint y="-11" as="offset" />
          </mxGeometry>
        </mxCell>
        <mxCell id="duCD_uY5v47mJ_seT25w-23" style="edgeStyle=orthogonalEdgeStyle;rounded=0;orthogonalLoop=1;jettySize=auto;html=1;endArrow=oval;endFill=0;exitX=0.899;exitY=0.996;exitDx=0;exitDy=0;exitPerimeter=0;" parent="1" source="duCD_uY5v47mJ_seT25w-25" edge="1">
          <mxGeometry relative="1" as="geometry">
            <mxPoint x="-290" y="289.08" as="targetPoint" />
            <mxPoint x="-290.7" y="269.1" as="sourcePoint" />
            <Array as="points" />
          </mxGeometry>
        </mxCell>
        <mxCell id="duCD_uY5v47mJ_seT25w-24" value="PostalCode" style="edgeLabel;html=1;align=center;verticalAlign=middle;resizable=0;points=[];labelBackgroundColor=none;" parent="duCD_uY5v47mJ_seT25w-23" vertex="1" connectable="0">
          <mxGeometry x="0.7323" y="-2" relative="1" as="geometry">
            <mxPoint x="12" y="14" as="offset" />
          </mxGeometry>
        </mxCell>
        <mxCell id="duCD_uY5v47mJ_seT25w-25" value="Address" style="rounded=1;arcSize=10;whiteSpace=wrap;html=1;align=center;fillColor=none;" parent="1" vertex="1">
          <mxGeometry x="-380" y="229.08" width="100" height="40" as="geometry" />
        </mxCell>
        <mxCell id="duCD_uY5v47mJ_seT25w-26" style="edgeStyle=orthogonalEdgeStyle;rounded=0;orthogonalLoop=1;jettySize=auto;html=1;endArrow=oval;endFill=0;" parent="1" edge="1">
          <mxGeometry relative="1" as="geometry">
            <mxPoint x="-290" y="209.08" as="targetPoint" />
            <mxPoint x="-289.99999999999994" y="229.08" as="sourcePoint" />
          </mxGeometry>
        </mxCell>
        <mxCell id="duCD_uY5v47mJ_seT25w-27" value="StreetAddress" style="edgeLabel;html=1;align=center;verticalAlign=middle;resizable=0;points=[];labelBackgroundColor=none;" parent="duCD_uY5v47mJ_seT25w-26" vertex="1" connectable="0">
          <mxGeometry x="0.7323" y="-2" relative="1" as="geometry">
            <mxPoint x="18" y="-12" as="offset" />
          </mxGeometry>
        </mxCell>
        <mxCell id="duCD_uY5v47mJ_seT25w-28" style="edgeStyle=orthogonalEdgeStyle;rounded=0;orthogonalLoop=1;jettySize=auto;html=1;endArrow=oval;endFill=0;exitX=1;exitY=0.25;exitDx=0;exitDy=0;" parent="1" edge="1">
          <mxGeometry relative="1" as="geometry">
            <mxPoint x="-270" y="229.08" as="targetPoint" />
            <mxPoint x="-290.0000000000001" y="229.08" as="sourcePoint" />
          </mxGeometry>
        </mxCell>
        <mxCell id="duCD_uY5v47mJ_seT25w-29" value="City" style="edgeLabel;html=1;align=center;verticalAlign=middle;resizable=0;points=[];labelBackgroundColor=none;" parent="duCD_uY5v47mJ_seT25w-28" vertex="1" connectable="0">
          <mxGeometry x="1" y="-3" relative="1" as="geometry">
            <mxPoint x="16" y="-3" as="offset" />
          </mxGeometry>
        </mxCell>
        <mxCell id="duCD_uY5v47mJ_seT25w-30" style="edgeStyle=orthogonalEdgeStyle;rounded=0;orthogonalLoop=1;jettySize=auto;html=1;endArrow=oval;endFill=0;exitX=1;exitY=0.25;exitDx=0;exitDy=0;" parent="1" edge="1">
          <mxGeometry relative="1" as="geometry">
            <mxPoint x="-269.9999999999999" y="269.08" as="targetPoint" />
            <mxPoint x="-290" y="269.08" as="sourcePoint" />
            <Array as="points">
              <mxPoint x="-280" y="269.08" />
              <mxPoint x="-280" y="269.08" />
            </Array>
          </mxGeometry>
        </mxCell>
        <mxCell id="duCD_uY5v47mJ_seT25w-31" value="State" style="edgeLabel;html=1;align=center;verticalAlign=middle;resizable=0;points=[];labelBackgroundColor=none;" parent="duCD_uY5v47mJ_seT25w-30" vertex="1" connectable="0">
          <mxGeometry x="1" y="-3" relative="1" as="geometry">
            <mxPoint x="20" y="-3" as="offset" />
          </mxGeometry>
        </mxCell>
        <mxCell id="duCD_uY5v47mJ_seT25w-32" style="edgeStyle=orthogonalEdgeStyle;rounded=0;orthogonalLoop=1;jettySize=auto;html=1;endArrow=oval;endFill=0;exitX=0.025;exitY=0.007;exitDx=0;exitDy=0;exitPerimeter=0;" parent="1" source="duCD_uY5v47mJ_seT25w-25" edge="1">
          <mxGeometry relative="1" as="geometry">
            <mxPoint x="-390" y="229.08" as="targetPoint" />
            <mxPoint x="-410" y="239.08" as="sourcePoint" />
          </mxGeometry>
        </mxCell>
        <mxCell id="duCD_uY5v47mJ_seT25w-33" value="Country" style="edgeLabel;html=1;align=center;verticalAlign=middle;resizable=0;points=[];labelBackgroundColor=none;" parent="duCD_uY5v47mJ_seT25w-32" vertex="1" connectable="0">
          <mxGeometry x="0.7323" y="-2" relative="1" as="geometry">
            <mxPoint x="-33" y="2" as="offset" />
          </mxGeometry>
        </mxCell>
        <mxCell id="duCD_uY5v47mJ_seT25w-34" style="edgeStyle=orthogonalEdgeStyle;rounded=0;orthogonalLoop=1;jettySize=auto;html=1;endArrow=oval;endFill=0;exitX=0.025;exitY=0.007;exitDx=0;exitDy=0;exitPerimeter=0;" parent="1" edge="1">
          <mxGeometry relative="1" as="geometry">
            <mxPoint x="-390" y="269.08" as="targetPoint" />
            <mxPoint x="-377" y="269.08" as="sourcePoint" />
          </mxGeometry>
        </mxCell>
        <mxCell id="duCD_uY5v47mJ_seT25w-35" value="AddressType" style="edgeLabel;html=1;align=center;verticalAlign=middle;resizable=0;points=[];labelBackgroundColor=none;" parent="duCD_uY5v47mJ_seT25w-34" vertex="1" connectable="0">
          <mxGeometry x="0.7323" y="-2" relative="1" as="geometry">
            <mxPoint x="-42" y="2" as="offset" />
          </mxGeometry>
        </mxCell>
        <mxCell id="duCD_uY5v47mJ_seT25w-38" style="edgeStyle=orthogonalEdgeStyle;rounded=0;orthogonalLoop=1;jettySize=auto;html=1;endArrow=oval;endFill=0;exitX=0.899;exitY=0.996;exitDx=0;exitDy=0;exitPerimeter=0;" parent="1" edge="1">
          <mxGeometry relative="1" as="geometry">
            <mxPoint x="-370" y="549.08" as="targetPoint" />
            <mxPoint x="-370" y="529.08" as="sourcePoint" />
            <Array as="points" />
          </mxGeometry>
        </mxCell>
        <mxCell id="duCD_uY5v47mJ_seT25w-39" value="Role" style="edgeLabel;html=1;align=center;verticalAlign=middle;resizable=0;points=[];labelBackgroundColor=none;" parent="duCD_uY5v47mJ_seT25w-38" vertex="1" connectable="0">
          <mxGeometry x="0.7323" y="-2" relative="1" as="geometry">
            <mxPoint x="2" y="14" as="offset" />
          </mxGeometry>
        </mxCell>
        <mxCell id="duCD_uY5v47mJ_seT25w-44" style="edgeStyle=orthogonalEdgeStyle;rounded=0;orthogonalLoop=1;jettySize=auto;html=1;endArrow=oval;endFill=0;exitX=0.899;exitY=0.996;exitDx=0;exitDy=0;exitPerimeter=0;" parent="1" edge="1">
          <mxGeometry relative="1" as="geometry">
            <mxPoint x="-370" y="289.08" as="targetPoint" />
            <mxPoint x="-370" y="269.08" as="sourcePoint" />
            <Array as="points" />
          </mxGeometry>
        </mxCell>
        <mxCell id="duCD_uY5v47mJ_seT25w-45" value="IsDefault" style="edgeLabel;html=1;align=center;verticalAlign=middle;resizable=0;points=[];labelBackgroundColor=none;" parent="duCD_uY5v47mJ_seT25w-44" vertex="1" connectable="0">
          <mxGeometry x="0.7323" y="-2" relative="1" as="geometry">
            <mxPoint x="-8" y="14" as="offset" />
          </mxGeometry>
        </mxCell>
        <mxCell id="duCD_uY5v47mJ_seT25w-46" style="edgeStyle=orthogonalEdgeStyle;rounded=0;orthogonalLoop=1;jettySize=auto;html=1;exitX=0.25;exitY=0;exitDx=0;exitDy=0;endArrow=oval;endFill=1;" parent="1" edge="1">
          <mxGeometry relative="1" as="geometry">
            <mxPoint x="-1129.942528735632" y="719" as="targetPoint" />
            <mxPoint x="-1130" y="739" as="sourcePoint" />
            <Array as="points">
              <mxPoint x="-1130" y="729" />
              <mxPoint x="-1130" y="729" />
            </Array>
          </mxGeometry>
        </mxCell>
        <mxCell id="duCD_uY5v47mJ_seT25w-47" value="CategoryID" style="edgeLabel;html=1;align=center;verticalAlign=middle;resizable=0;points=[];labelBackgroundColor=none;" parent="duCD_uY5v47mJ_seT25w-46" vertex="1" connectable="0">
          <mxGeometry x="0.8889" relative="1" as="geometry">
            <mxPoint y="-11" as="offset" />
          </mxGeometry>
        </mxCell>
        <mxCell id="nkMpFI6Zw1iPEzCYwyhi-23" value="" style="edgeStyle=orthogonalEdgeStyle;rounded=0;orthogonalLoop=1;jettySize=auto;html=1;endArrow=none;startFill=0;" edge="1" parent="1" source="duCD_uY5v47mJ_seT25w-50" target="nkMpFI6Zw1iPEzCYwyhi-22">
          <mxGeometry relative="1" as="geometry" />
        </mxCell>
        <mxCell id="nkMpFI6Zw1iPEzCYwyhi-88" value="1" style="edgeLabel;html=1;align=center;verticalAlign=middle;resizable=0;points=[];labelBackgroundColor=none;" vertex="1" connectable="0" parent="nkMpFI6Zw1iPEzCYwyhi-23">
          <mxGeometry x="0.7373" y="1" relative="1" as="geometry">
            <mxPoint x="4" y="2" as="offset" />
          </mxGeometry>
        </mxCell>
        <mxCell id="nkMpFI6Zw1iPEzCYwyhi-26" value="" style="edgeStyle=orthogonalEdgeStyle;rounded=0;orthogonalLoop=1;jettySize=auto;html=1;endArrow=none;startFill=0;" edge="1" parent="1" source="duCD_uY5v47mJ_seT25w-50" target="nkMpFI6Zw1iPEzCYwyhi-25">
          <mxGeometry relative="1" as="geometry" />
        </mxCell>
        <mxCell id="nkMpFI6Zw1iPEzCYwyhi-90" value="N" style="edgeLabel;html=1;align=center;verticalAlign=middle;resizable=0;points=[];labelBackgroundColor=none;" vertex="1" connectable="0" parent="nkMpFI6Zw1iPEzCYwyhi-26">
          <mxGeometry x="-0.6978" relative="1" as="geometry">
            <mxPoint x="8" y="1" as="offset" />
          </mxGeometry>
        </mxCell>
        <mxCell id="duCD_uY5v47mJ_seT25w-50" value="Category" style="rounded=1;arcSize=10;whiteSpace=wrap;html=1;align=center;fillColor=none;" parent="1" vertex="1">
          <mxGeometry x="-1140" y="739" width="100" height="40" as="geometry" />
        </mxCell>
        <mxCell id="duCD_uY5v47mJ_seT25w-51" style="edgeStyle=orthogonalEdgeStyle;rounded=0;orthogonalLoop=1;jettySize=auto;html=1;endArrow=oval;endFill=0;" parent="1" edge="1">
          <mxGeometry relative="1" as="geometry">
            <mxPoint x="-1050" y="719" as="targetPoint" />
            <mxPoint x="-1050" y="739" as="sourcePoint" />
          </mxGeometry>
        </mxCell>
        <mxCell id="duCD_uY5v47mJ_seT25w-52" value="CategoryName" style="edgeLabel;html=1;align=center;verticalAlign=middle;resizable=0;points=[];labelBackgroundColor=none;" parent="duCD_uY5v47mJ_seT25w-51" vertex="1" connectable="0">
          <mxGeometry x="0.7323" y="-2" relative="1" as="geometry">
            <mxPoint x="18" y="-12" as="offset" />
          </mxGeometry>
        </mxCell>
        <mxCell id="duCD_uY5v47mJ_seT25w-53" style="edgeStyle=orthogonalEdgeStyle;rounded=0;orthogonalLoop=1;jettySize=auto;html=1;endArrow=oval;endFill=0;exitX=1;exitY=0.25;exitDx=0;exitDy=0;" parent="1" edge="1">
          <mxGeometry relative="1" as="geometry">
            <mxPoint x="-1030" y="739" as="targetPoint" />
            <mxPoint x="-1050" y="739" as="sourcePoint" />
          </mxGeometry>
        </mxCell>
        <mxCell id="duCD_uY5v47mJ_seT25w-54" value="CategoryType" style="edgeLabel;html=1;align=center;verticalAlign=middle;resizable=0;points=[];labelBackgroundColor=none;" parent="duCD_uY5v47mJ_seT25w-53" vertex="1" connectable="0">
          <mxGeometry x="1" y="-3" relative="1" as="geometry">
            <mxPoint x="40" y="-3" as="offset" />
          </mxGeometry>
        </mxCell>
        <mxCell id="duCD_uY5v47mJ_seT25w-55" style="edgeStyle=orthogonalEdgeStyle;rounded=0;orthogonalLoop=1;jettySize=auto;html=1;endArrow=oval;endFill=0;exitX=1;exitY=0.25;exitDx=0;exitDy=0;" parent="1" edge="1">
          <mxGeometry relative="1" as="geometry">
            <mxPoint x="-1030" y="779" as="targetPoint" />
            <mxPoint x="-1050" y="779" as="sourcePoint" />
            <Array as="points">
              <mxPoint x="-1040" y="779" />
              <mxPoint x="-1040" y="779" />
            </Array>
          </mxGeometry>
        </mxCell>
        <mxCell id="duCD_uY5v47mJ_seT25w-56" value="Description" style="edgeLabel;html=1;align=center;verticalAlign=middle;resizable=0;points=[];labelBackgroundColor=none;" parent="duCD_uY5v47mJ_seT25w-55" vertex="1" connectable="0">
          <mxGeometry x="1" y="-3" relative="1" as="geometry">
            <mxPoint x="34" y="-3" as="offset" />
          </mxGeometry>
        </mxCell>
        <mxCell id="duCD_uY5v47mJ_seT25w-63" style="edgeStyle=orthogonalEdgeStyle;rounded=0;orthogonalLoop=1;jettySize=auto;html=1;exitX=0;exitY=0.25;exitDx=0;exitDy=0;endArrow=oval;endFill=1;" parent="1" edge="1">
          <mxGeometry relative="1" as="geometry">
            <mxPoint x="-1150" y="490" as="targetPoint" />
            <mxPoint x="-1130" y="490" as="sourcePoint" />
            <Array as="points">
              <mxPoint x="-1150" y="490" />
              <mxPoint x="-1150" y="490" />
            </Array>
          </mxGeometry>
        </mxCell>
        <mxCell id="duCD_uY5v47mJ_seT25w-64" value="ProductID" style="edgeLabel;html=1;align=center;verticalAlign=middle;resizable=0;points=[];labelBackgroundColor=none;" parent="duCD_uY5v47mJ_seT25w-63" vertex="1" connectable="0">
          <mxGeometry x="0.8889" relative="1" as="geometry">
            <mxPoint x="-31" y="-2" as="offset" />
          </mxGeometry>
        </mxCell>
        <mxCell id="duCD_uY5v47mJ_seT25w-65" style="edgeStyle=orthogonalEdgeStyle;rounded=0;orthogonalLoop=1;jettySize=auto;html=1;endArrow=oval;endFill=0;exitX=0.899;exitY=0.996;exitDx=0;exitDy=0;exitPerimeter=0;" parent="1" source="duCD_uY5v47mJ_seT25w-67" edge="1">
          <mxGeometry relative="1" as="geometry">
            <mxPoint x="-1047" y="550" as="targetPoint" />
            <mxPoint x="-1047.7" y="530.02" as="sourcePoint" />
            <Array as="points" />
          </mxGeometry>
        </mxCell>
        <mxCell id="duCD_uY5v47mJ_seT25w-66" value="CurrentPrice" style="edgeLabel;html=1;align=center;verticalAlign=middle;resizable=0;points=[];labelBackgroundColor=none;" parent="duCD_uY5v47mJ_seT25w-65" vertex="1" connectable="0">
          <mxGeometry x="0.7323" y="-2" relative="1" as="geometry">
            <mxPoint x="29" y="14" as="offset" />
          </mxGeometry>
        </mxCell>
        <mxCell id="nkMpFI6Zw1iPEzCYwyhi-29" value="" style="edgeStyle=orthogonalEdgeStyle;rounded=0;orthogonalLoop=1;jettySize=auto;html=1;entryX=0.493;entryY=0.96;entryDx=0;entryDy=0;entryPerimeter=0;endArrow=none;startFill=0;" edge="1" parent="1" target="nkMpFI6Zw1iPEzCYwyhi-28">
          <mxGeometry relative="1" as="geometry">
            <mxPoint x="-1090.17" y="490" as="sourcePoint" />
            <mxPoint x="-1090.17" y="430" as="targetPoint" />
          </mxGeometry>
        </mxCell>
        <mxCell id="nkMpFI6Zw1iPEzCYwyhi-93" value="1" style="edgeLabel;html=1;align=center;verticalAlign=middle;resizable=0;points=[];labelBackgroundColor=none;" vertex="1" connectable="0" parent="nkMpFI6Zw1iPEzCYwyhi-29">
          <mxGeometry x="-0.7203" y="1" relative="1" as="geometry">
            <mxPoint x="7" y="2" as="offset" />
          </mxGeometry>
        </mxCell>
        <mxCell id="nkMpFI6Zw1iPEzCYwyhi-34" style="edgeStyle=orthogonalEdgeStyle;rounded=0;orthogonalLoop=1;jettySize=auto;html=1;endArrow=none;startFill=0;" edge="1" parent="1" source="duCD_uY5v47mJ_seT25w-67" target="nkMpFI6Zw1iPEzCYwyhi-33">
          <mxGeometry relative="1" as="geometry">
            <Array as="points">
              <mxPoint x="-1070" y="430" />
            </Array>
          </mxGeometry>
        </mxCell>
        <mxCell id="nkMpFI6Zw1iPEzCYwyhi-97" value="1" style="edgeLabel;html=1;align=center;verticalAlign=middle;resizable=0;points=[];labelBackgroundColor=none;" vertex="1" connectable="0" parent="nkMpFI6Zw1iPEzCYwyhi-34">
          <mxGeometry x="-0.9482" relative="1" as="geometry">
            <mxPoint x="5" y="1" as="offset" />
          </mxGeometry>
        </mxCell>
        <mxCell id="nkMpFI6Zw1iPEzCYwyhi-38" style="edgeStyle=orthogonalEdgeStyle;rounded=0;orthogonalLoop=1;jettySize=auto;html=1;endArrow=none;startFill=0;" edge="1" parent="1" source="duCD_uY5v47mJ_seT25w-67" target="nkMpFI6Zw1iPEzCYwyhi-36">
          <mxGeometry relative="1" as="geometry">
            <Array as="points">
              <mxPoint x="-1110" y="430" />
              <mxPoint x="-1390" y="430" />
            </Array>
          </mxGeometry>
        </mxCell>
        <mxCell id="nkMpFI6Zw1iPEzCYwyhi-95" value="1" style="edgeLabel;html=1;align=center;verticalAlign=middle;resizable=0;points=[];labelBackgroundColor=none;" vertex="1" connectable="0" parent="nkMpFI6Zw1iPEzCYwyhi-38">
          <mxGeometry x="-0.943" y="-1" relative="1" as="geometry">
            <mxPoint x="2" y="2" as="offset" />
          </mxGeometry>
        </mxCell>
        <mxCell id="nkMpFI6Zw1iPEzCYwyhi-41" style="edgeStyle=orthogonalEdgeStyle;rounded=0;orthogonalLoop=1;jettySize=auto;html=1;entryX=0.5;entryY=0;entryDx=0;entryDy=0;endArrow=none;startFill=0;" edge="1" parent="1" source="duCD_uY5v47mJ_seT25w-67" target="nkMpFI6Zw1iPEzCYwyhi-40">
          <mxGeometry relative="1" as="geometry">
            <Array as="points">
              <mxPoint x="-1110" y="590" />
              <mxPoint x="-1390" y="590" />
            </Array>
          </mxGeometry>
        </mxCell>
        <mxCell id="nkMpFI6Zw1iPEzCYwyhi-99" value="1" style="edgeLabel;html=1;align=center;verticalAlign=middle;resizable=0;points=[];labelBackgroundColor=none;" vertex="1" connectable="0" parent="nkMpFI6Zw1iPEzCYwyhi-41">
          <mxGeometry x="-0.9747" y="1" relative="1" as="geometry">
            <mxPoint x="2" y="2" as="offset" />
          </mxGeometry>
        </mxCell>
        <mxCell id="nkMpFI6Zw1iPEzCYwyhi-50" style="edgeStyle=orthogonalEdgeStyle;rounded=0;orthogonalLoop=1;jettySize=auto;html=1;endArrow=none;startFill=0;" edge="1" parent="1" source="duCD_uY5v47mJ_seT25w-67" target="nkMpFI6Zw1iPEzCYwyhi-49">
          <mxGeometry relative="1" as="geometry">
            <Array as="points">
              <mxPoint x="-1070" y="590" />
              <mxPoint x="-795" y="590" />
            </Array>
          </mxGeometry>
        </mxCell>
        <mxCell id="nkMpFI6Zw1iPEzCYwyhi-106" value="1" style="edgeLabel;html=1;align=center;verticalAlign=middle;resizable=0;points=[];labelBackgroundColor=none;" vertex="1" connectable="0" parent="nkMpFI6Zw1iPEzCYwyhi-50">
          <mxGeometry x="-0.9716" relative="1" as="geometry">
            <mxPoint x="5" y="2" as="offset" />
          </mxGeometry>
        </mxCell>
        <mxCell id="nkMpFI6Zw1iPEzCYwyhi-71" style="edgeStyle=orthogonalEdgeStyle;rounded=0;orthogonalLoop=1;jettySize=auto;html=1;entryX=0.5;entryY=0;entryDx=0;entryDy=0;endArrow=none;startFill=0;" edge="1" parent="1" source="duCD_uY5v47mJ_seT25w-67" target="nkMpFI6Zw1iPEzCYwyhi-70">
          <mxGeometry relative="1" as="geometry">
            <Array as="points">
              <mxPoint x="-1130" y="560" />
              <mxPoint x="-1720" y="560" />
            </Array>
          </mxGeometry>
        </mxCell>
        <mxCell id="nkMpFI6Zw1iPEzCYwyhi-113" value="1" style="edgeLabel;html=1;align=center;verticalAlign=middle;resizable=0;points=[];labelBackgroundColor=none;" vertex="1" connectable="0" parent="nkMpFI6Zw1iPEzCYwyhi-71">
          <mxGeometry x="-0.9811" relative="1" as="geometry">
            <mxPoint x="4" as="offset" />
          </mxGeometry>
        </mxCell>
        <mxCell id="duCD_uY5v47mJ_seT25w-67" value="Product" style="rounded=1;arcSize=10;whiteSpace=wrap;html=1;align=center;fillColor=none;" parent="1" vertex="1">
          <mxGeometry x="-1137" y="490" width="100" height="40" as="geometry" />
        </mxCell>
        <mxCell id="duCD_uY5v47mJ_seT25w-68" style="edgeStyle=orthogonalEdgeStyle;rounded=0;orthogonalLoop=1;jettySize=auto;html=1;endArrow=oval;endFill=0;exitX=1;exitY=0.25;exitDx=0;exitDy=0;" parent="1" edge="1">
          <mxGeometry relative="1" as="geometry">
            <mxPoint x="-1023" y="490" as="targetPoint" />
            <mxPoint x="-1040" y="490" as="sourcePoint" />
            <Array as="points">
              <mxPoint x="-1033" y="490" />
              <mxPoint x="-1033" y="490" />
            </Array>
          </mxGeometry>
        </mxCell>
        <mxCell id="duCD_uY5v47mJ_seT25w-69" value="SKU" style="edgeLabel;html=1;align=center;verticalAlign=middle;resizable=0;points=[];labelBackgroundColor=none;" parent="duCD_uY5v47mJ_seT25w-68" vertex="1" connectable="0">
          <mxGeometry x="0.7323" y="-2" relative="1" as="geometry">
            <mxPoint x="22" y="-2" as="offset" />
          </mxGeometry>
        </mxCell>
        <mxCell id="duCD_uY5v47mJ_seT25w-70" style="edgeStyle=orthogonalEdgeStyle;rounded=0;orthogonalLoop=1;jettySize=auto;html=1;endArrow=oval;endFill=0;exitX=1;exitY=0.25;exitDx=0;exitDy=0;" parent="1" edge="1">
          <mxGeometry relative="1" as="geometry">
            <mxPoint x="-1017" y="501" as="targetPoint" />
            <mxPoint x="-1037" y="501" as="sourcePoint" />
          </mxGeometry>
        </mxCell>
        <mxCell id="duCD_uY5v47mJ_seT25w-71" value="ProductName" style="edgeLabel;html=1;align=center;verticalAlign=middle;resizable=0;points=[];labelBackgroundColor=none;" parent="duCD_uY5v47mJ_seT25w-70" vertex="1" connectable="0">
          <mxGeometry x="1" y="-3" relative="1" as="geometry">
            <mxPoint x="40" y="-3" as="offset" />
          </mxGeometry>
        </mxCell>
        <mxCell id="duCD_uY5v47mJ_seT25w-72" style="edgeStyle=orthogonalEdgeStyle;rounded=0;orthogonalLoop=1;jettySize=auto;html=1;endArrow=oval;endFill=0;exitX=1;exitY=0.25;exitDx=0;exitDy=0;" parent="1" edge="1">
          <mxGeometry relative="1" as="geometry">
            <mxPoint x="-1027" y="530" as="targetPoint" />
            <mxPoint x="-1047" y="530" as="sourcePoint" />
            <Array as="points">
              <mxPoint x="-1037" y="530" />
              <mxPoint x="-1037" y="530" />
            </Array>
          </mxGeometry>
        </mxCell>
        <mxCell id="duCD_uY5v47mJ_seT25w-73" value="BasePrice" style="edgeLabel;html=1;align=center;verticalAlign=middle;resizable=0;points=[];labelBackgroundColor=none;" parent="duCD_uY5v47mJ_seT25w-72" vertex="1" connectable="0">
          <mxGeometry x="1" y="-3" relative="1" as="geometry">
            <mxPoint x="30" y="-3" as="offset" />
          </mxGeometry>
        </mxCell>
        <mxCell id="duCD_uY5v47mJ_seT25w-74" style="edgeStyle=orthogonalEdgeStyle;rounded=0;orthogonalLoop=1;jettySize=auto;html=1;endArrow=oval;endFill=0;exitX=0.025;exitY=0.007;exitDx=0;exitDy=0;exitPerimeter=0;" parent="1" edge="1">
          <mxGeometry relative="1" as="geometry">
            <mxPoint x="-1149.5" y="503.76" as="targetPoint" />
            <mxPoint x="-1137" y="504.03999999999996" as="sourcePoint" />
            <Array as="points">
              <mxPoint x="-1142.5" y="503.76" />
            </Array>
          </mxGeometry>
        </mxCell>
        <mxCell id="duCD_uY5v47mJ_seT25w-75" value="CreatedAt" style="edgeLabel;html=1;align=center;verticalAlign=middle;resizable=0;points=[];labelBackgroundColor=none;" parent="duCD_uY5v47mJ_seT25w-74" vertex="1" connectable="0">
          <mxGeometry x="0.7323" y="-2" relative="1" as="geometry">
            <mxPoint x="-33" y="2" as="offset" />
          </mxGeometry>
        </mxCell>
        <mxCell id="duCD_uY5v47mJ_seT25w-76" style="edgeStyle=orthogonalEdgeStyle;rounded=0;orthogonalLoop=1;jettySize=auto;html=1;endArrow=oval;endFill=0;exitX=0.025;exitY=0.007;exitDx=0;exitDy=0;exitPerimeter=0;" parent="1" edge="1">
          <mxGeometry relative="1" as="geometry">
            <mxPoint x="-1147" y="530" as="targetPoint" />
            <mxPoint x="-1134" y="530" as="sourcePoint" />
          </mxGeometry>
        </mxCell>
        <mxCell id="duCD_uY5v47mJ_seT25w-77" value="ProductType" style="edgeLabel;html=1;align=center;verticalAlign=middle;resizable=0;points=[];labelBackgroundColor=none;" parent="duCD_uY5v47mJ_seT25w-76" vertex="1" connectable="0">
          <mxGeometry x="0.7323" y="-2" relative="1" as="geometry">
            <mxPoint x="-42" y="2" as="offset" />
          </mxGeometry>
        </mxCell>
        <mxCell id="duCD_uY5v47mJ_seT25w-78" style="edgeStyle=orthogonalEdgeStyle;rounded=0;orthogonalLoop=1;jettySize=auto;html=1;endArrow=oval;endFill=0;exitX=0.899;exitY=0.996;exitDx=0;exitDy=0;exitPerimeter=0;" parent="1" edge="1">
          <mxGeometry relative="1" as="geometry">
            <mxPoint x="-1050" y="480" as="targetPoint" />
            <mxPoint x="-1050" y="490" as="sourcePoint" />
            <Array as="points" />
          </mxGeometry>
        </mxCell>
        <mxCell id="duCD_uY5v47mJ_seT25w-79" value="StockQuantity" style="edgeLabel;html=1;align=center;verticalAlign=middle;resizable=0;points=[];labelBackgroundColor=none;" parent="duCD_uY5v47mJ_seT25w-78" vertex="1" connectable="0">
          <mxGeometry x="0.7323" y="-2" relative="1" as="geometry">
            <mxPoint x="28" y="-10" as="offset" />
          </mxGeometry>
        </mxCell>
        <mxCell id="duCD_uY5v47mJ_seT25w-80" style="edgeStyle=orthogonalEdgeStyle;rounded=0;orthogonalLoop=1;jettySize=auto;html=1;endArrow=oval;endFill=0;exitX=1;exitY=0.25;exitDx=0;exitDy=0;" parent="1" edge="1">
          <mxGeometry relative="1" as="geometry">
            <mxPoint x="-1016.9999999999999" y="514.9200000000001" as="targetPoint" />
            <mxPoint x="-1037" y="514.9200000000001" as="sourcePoint" />
          </mxGeometry>
        </mxCell>
        <mxCell id="duCD_uY5v47mJ_seT25w-81" value="LastUpdated" style="edgeLabel;html=1;align=center;verticalAlign=middle;resizable=0;points=[];labelBackgroundColor=none;" parent="duCD_uY5v47mJ_seT25w-80" vertex="1" connectable="0">
          <mxGeometry x="1" y="-3" relative="1" as="geometry">
            <mxPoint x="37" y="-3" as="offset" />
          </mxGeometry>
        </mxCell>
        <mxCell id="duCD_uY5v47mJ_seT25w-82" style="edgeStyle=orthogonalEdgeStyle;rounded=0;orthogonalLoop=1;jettySize=auto;html=1;endArrow=oval;endFill=0;exitX=0.025;exitY=0.007;exitDx=0;exitDy=0;exitPerimeter=0;" parent="1" edge="1">
          <mxGeometry relative="1" as="geometry">
            <mxPoint x="-1150" y="518" as="targetPoint" />
            <mxPoint x="-1137" y="518" as="sourcePoint" />
          </mxGeometry>
        </mxCell>
        <mxCell id="duCD_uY5v47mJ_seT25w-83" value="IsActive" style="edgeLabel;html=1;align=center;verticalAlign=middle;resizable=0;points=[];labelBackgroundColor=none;" parent="duCD_uY5v47mJ_seT25w-82" vertex="1" connectable="0">
          <mxGeometry x="0.7323" y="-2" relative="1" as="geometry">
            <mxPoint x="-28" y="2" as="offset" />
          </mxGeometry>
        </mxCell>
        <mxCell id="duCD_uY5v47mJ_seT25w-84" style="edgeStyle=orthogonalEdgeStyle;rounded=0;orthogonalLoop=1;jettySize=auto;html=1;exitX=0.25;exitY=0;exitDx=0;exitDy=0;endArrow=oval;endFill=1;" parent="1" edge="1">
          <mxGeometry relative="1" as="geometry">
            <mxPoint x="-1129.932528735632" y="210" as="targetPoint" />
            <mxPoint x="-1129.99" y="230" as="sourcePoint" />
            <Array as="points">
              <mxPoint x="-1129.99" y="220" />
              <mxPoint x="-1129.99" y="220" />
            </Array>
          </mxGeometry>
        </mxCell>
        <mxCell id="duCD_uY5v47mJ_seT25w-85" value="CardID" style="edgeLabel;html=1;align=center;verticalAlign=middle;resizable=0;points=[];labelBackgroundColor=none;" parent="duCD_uY5v47mJ_seT25w-84" vertex="1" connectable="0">
          <mxGeometry x="0.8889" relative="1" as="geometry">
            <mxPoint y="-11" as="offset" />
          </mxGeometry>
        </mxCell>
        <mxCell id="duCD_uY5v47mJ_seT25w-86" style="edgeStyle=orthogonalEdgeStyle;rounded=0;orthogonalLoop=1;jettySize=auto;html=1;endArrow=oval;endFill=0;exitX=0.899;exitY=0.996;exitDx=0;exitDy=0;exitPerimeter=0;" parent="1" source="duCD_uY5v47mJ_seT25w-88" edge="1">
          <mxGeometry relative="1" as="geometry">
            <mxPoint x="-1049.99" y="290" as="targetPoint" />
            <mxPoint x="-1050.69" y="270.02" as="sourcePoint" />
            <Array as="points" />
          </mxGeometry>
        </mxCell>
        <mxCell id="duCD_uY5v47mJ_seT25w-87" value="CardCondition" style="edgeLabel;html=1;align=center;verticalAlign=middle;resizable=0;points=[];labelBackgroundColor=none;" parent="duCD_uY5v47mJ_seT25w-86" vertex="1" connectable="0">
          <mxGeometry x="0.7323" y="-2" relative="1" as="geometry">
            <mxPoint x="22" y="14" as="offset" />
          </mxGeometry>
        </mxCell>
        <mxCell id="duCD_uY5v47mJ_seT25w-88" value="TradingCard" style="rounded=1;arcSize=10;whiteSpace=wrap;html=1;align=center;fillColor=none;" parent="1" vertex="1">
          <mxGeometry x="-1139.99" y="230" width="100" height="40" as="geometry" />
        </mxCell>
        <mxCell id="duCD_uY5v47mJ_seT25w-89" style="edgeStyle=orthogonalEdgeStyle;rounded=0;orthogonalLoop=1;jettySize=auto;html=1;endArrow=oval;endFill=0;" parent="1" edge="1">
          <mxGeometry relative="1" as="geometry">
            <mxPoint x="-1049.99" y="210" as="targetPoint" />
            <mxPoint x="-1049.99" y="230" as="sourcePoint" />
          </mxGeometry>
        </mxCell>
        <mxCell id="duCD_uY5v47mJ_seT25w-90" value="CardSet" style="edgeLabel;html=1;align=center;verticalAlign=middle;resizable=0;points=[];labelBackgroundColor=none;" parent="duCD_uY5v47mJ_seT25w-89" vertex="1" connectable="0">
          <mxGeometry x="0.7323" y="-2" relative="1" as="geometry">
            <mxPoint x="18" y="-12" as="offset" />
          </mxGeometry>
        </mxCell>
        <mxCell id="duCD_uY5v47mJ_seT25w-91" style="edgeStyle=orthogonalEdgeStyle;rounded=0;orthogonalLoop=1;jettySize=auto;html=1;endArrow=oval;endFill=0;exitX=1;exitY=0.25;exitDx=0;exitDy=0;" parent="1" edge="1">
          <mxGeometry relative="1" as="geometry">
            <mxPoint x="-1029.99" y="230" as="targetPoint" />
            <mxPoint x="-1049.9900000000002" y="230" as="sourcePoint" />
          </mxGeometry>
        </mxCell>
        <mxCell id="duCD_uY5v47mJ_seT25w-92" value="CardNumber" style="edgeLabel;html=1;align=center;verticalAlign=middle;resizable=0;points=[];labelBackgroundColor=none;" parent="duCD_uY5v47mJ_seT25w-91" vertex="1" connectable="0">
          <mxGeometry x="1" y="-3" relative="1" as="geometry">
            <mxPoint x="37" y="-3" as="offset" />
          </mxGeometry>
        </mxCell>
        <mxCell id="duCD_uY5v47mJ_seT25w-93" style="edgeStyle=orthogonalEdgeStyle;rounded=0;orthogonalLoop=1;jettySize=auto;html=1;endArrow=oval;endFill=0;exitX=1;exitY=0.25;exitDx=0;exitDy=0;" parent="1" edge="1">
          <mxGeometry relative="1" as="geometry">
            <mxPoint x="-1029.9899999999998" y="270" as="targetPoint" />
            <mxPoint x="-1049.99" y="270" as="sourcePoint" />
            <Array as="points">
              <mxPoint x="-1039.99" y="270" />
              <mxPoint x="-1039.99" y="270" />
            </Array>
          </mxGeometry>
        </mxCell>
        <mxCell id="duCD_uY5v47mJ_seT25w-94" value="Rarity" style="edgeLabel;html=1;align=center;verticalAlign=middle;resizable=0;points=[];labelBackgroundColor=none;" parent="duCD_uY5v47mJ_seT25w-93" vertex="1" connectable="0">
          <mxGeometry x="1" y="-3" relative="1" as="geometry">
            <mxPoint x="20" y="-3" as="offset" />
          </mxGeometry>
        </mxCell>
        <mxCell id="duCD_uY5v47mJ_seT25w-95" style="edgeStyle=orthogonalEdgeStyle;rounded=0;orthogonalLoop=1;jettySize=auto;html=1;endArrow=oval;endFill=0;exitX=0.025;exitY=0.007;exitDx=0;exitDy=0;exitPerimeter=0;" parent="1" source="duCD_uY5v47mJ_seT25w-88" edge="1">
          <mxGeometry relative="1" as="geometry">
            <mxPoint x="-1149.99" y="230" as="targetPoint" />
            <mxPoint x="-1169.99" y="240" as="sourcePoint" />
          </mxGeometry>
        </mxCell>
        <mxCell id="duCD_uY5v47mJ_seT25w-96" value="Artist" style="edgeLabel;html=1;align=center;verticalAlign=middle;resizable=0;points=[];labelBackgroundColor=none;" parent="duCD_uY5v47mJ_seT25w-95" vertex="1" connectable="0">
          <mxGeometry x="0.7323" y="-2" relative="1" as="geometry">
            <mxPoint x="-21" y="2" as="offset" />
          </mxGeometry>
        </mxCell>
        <mxCell id="duCD_uY5v47mJ_seT25w-97" style="edgeStyle=orthogonalEdgeStyle;rounded=0;orthogonalLoop=1;jettySize=auto;html=1;endArrow=oval;endFill=0;exitX=0.025;exitY=0.007;exitDx=0;exitDy=0;exitPerimeter=0;" parent="1" edge="1">
          <mxGeometry relative="1" as="geometry">
            <mxPoint x="-1149.99" y="270" as="targetPoint" />
            <mxPoint x="-1136.99" y="270" as="sourcePoint" />
          </mxGeometry>
        </mxCell>
        <mxCell id="duCD_uY5v47mJ_seT25w-98" value="YearPublished" style="edgeLabel;html=1;align=center;verticalAlign=middle;resizable=0;points=[];labelBackgroundColor=none;" parent="duCD_uY5v47mJ_seT25w-97" vertex="1" connectable="0">
          <mxGeometry x="0.7323" y="-2" relative="1" as="geometry">
            <mxPoint x="-42" y="2" as="offset" />
          </mxGeometry>
        </mxCell>
        <mxCell id="duCD_uY5v47mJ_seT25w-99" style="edgeStyle=orthogonalEdgeStyle;rounded=0;orthogonalLoop=1;jettySize=auto;html=1;endArrow=oval;endFill=0;exitX=0.899;exitY=0.996;exitDx=0;exitDy=0;exitPerimeter=0;" parent="1" edge="1">
          <mxGeometry relative="1" as="geometry">
            <mxPoint x="-1129.99" y="290" as="targetPoint" />
            <mxPoint x="-1129.99" y="270" as="sourcePoint" />
            <Array as="points" />
          </mxGeometry>
        </mxCell>
        <mxCell id="duCD_uY5v47mJ_seT25w-100" value="CardText" style="edgeLabel;html=1;align=center;verticalAlign=middle;resizable=0;points=[];labelBackgroundColor=none;" parent="duCD_uY5v47mJ_seT25w-99" vertex="1" connectable="0">
          <mxGeometry x="0.7323" y="-2" relative="1" as="geometry">
            <mxPoint x="-8" y="14" as="offset" />
          </mxGeometry>
        </mxCell>
        <mxCell id="duCD_uY5v47mJ_seT25w-101" style="edgeStyle=orthogonalEdgeStyle;rounded=0;orthogonalLoop=1;jettySize=auto;html=1;exitX=0.25;exitY=0;exitDx=0;exitDy=0;endArrow=oval;endFill=1;" parent="1" edge="1">
          <mxGeometry relative="1" as="geometry">
            <mxPoint x="-1429.942528735632" y="210" as="targetPoint" />
            <mxPoint x="-1430" y="230" as="sourcePoint" />
            <Array as="points">
              <mxPoint x="-1430" y="220" />
              <mxPoint x="-1430" y="220" />
            </Array>
          </mxGeometry>
        </mxCell>
        <mxCell id="duCD_uY5v47mJ_seT25w-102" value="AccessoryD" style="edgeLabel;html=1;align=center;verticalAlign=middle;resizable=0;points=[];labelBackgroundColor=none;" parent="duCD_uY5v47mJ_seT25w-101" vertex="1" connectable="0">
          <mxGeometry x="0.8889" relative="1" as="geometry">
            <mxPoint y="-11" as="offset" />
          </mxGeometry>
        </mxCell>
        <mxCell id="duCD_uY5v47mJ_seT25w-103" style="edgeStyle=orthogonalEdgeStyle;rounded=0;orthogonalLoop=1;jettySize=auto;html=1;endArrow=oval;endFill=0;exitX=0.899;exitY=0.996;exitDx=0;exitDy=0;exitPerimeter=0;" parent="1" source="duCD_uY5v47mJ_seT25w-105" edge="1">
          <mxGeometry relative="1" as="geometry">
            <mxPoint x="-1350" y="290" as="targetPoint" />
            <mxPoint x="-1350.7" y="270.02" as="sourcePoint" />
            <Array as="points" />
          </mxGeometry>
        </mxCell>
        <mxCell id="duCD_uY5v47mJ_seT25w-104" value="Dimensions" style="edgeLabel;html=1;align=center;verticalAlign=middle;resizable=0;points=[];labelBackgroundColor=none;" parent="duCD_uY5v47mJ_seT25w-103" vertex="1" connectable="0">
          <mxGeometry x="0.7323" y="-2" relative="1" as="geometry">
            <mxPoint x="12" y="14" as="offset" />
          </mxGeometry>
        </mxCell>
        <mxCell id="duCD_uY5v47mJ_seT25w-105" value="Accessory" style="rounded=1;arcSize=10;whiteSpace=wrap;html=1;align=center;fillColor=none;" parent="1" vertex="1">
          <mxGeometry x="-1440" y="230" width="100" height="40" as="geometry" />
        </mxCell>
        <mxCell id="duCD_uY5v47mJ_seT25w-106" style="edgeStyle=orthogonalEdgeStyle;rounded=0;orthogonalLoop=1;jettySize=auto;html=1;endArrow=oval;endFill=0;" parent="1" edge="1">
          <mxGeometry relative="1" as="geometry">
            <mxPoint x="-1350" y="210" as="targetPoint" />
            <mxPoint x="-1350" y="230" as="sourcePoint" />
          </mxGeometry>
        </mxCell>
        <mxCell id="duCD_uY5v47mJ_seT25w-107" value="AccessoryType" style="edgeLabel;html=1;align=center;verticalAlign=middle;resizable=0;points=[];labelBackgroundColor=none;" parent="duCD_uY5v47mJ_seT25w-106" vertex="1" connectable="0">
          <mxGeometry x="0.7323" y="-2" relative="1" as="geometry">
            <mxPoint x="18" y="-12" as="offset" />
          </mxGeometry>
        </mxCell>
        <mxCell id="duCD_uY5v47mJ_seT25w-108" style="edgeStyle=orthogonalEdgeStyle;rounded=0;orthogonalLoop=1;jettySize=auto;html=1;endArrow=oval;endFill=0;exitX=1;exitY=0.25;exitDx=0;exitDy=0;" parent="1" edge="1">
          <mxGeometry relative="1" as="geometry">
            <mxPoint x="-1330" y="230" as="targetPoint" />
            <mxPoint x="-1350" y="230" as="sourcePoint" />
          </mxGeometry>
        </mxCell>
        <mxCell id="duCD_uY5v47mJ_seT25w-109" value="Material" style="edgeLabel;html=1;align=center;verticalAlign=middle;resizable=0;points=[];labelBackgroundColor=none;" parent="duCD_uY5v47mJ_seT25w-108" vertex="1" connectable="0">
          <mxGeometry x="1" y="-3" relative="1" as="geometry">
            <mxPoint x="25" y="-3" as="offset" />
          </mxGeometry>
        </mxCell>
        <mxCell id="duCD_uY5v47mJ_seT25w-110" style="edgeStyle=orthogonalEdgeStyle;rounded=0;orthogonalLoop=1;jettySize=auto;html=1;endArrow=oval;endFill=0;exitX=1;exitY=0.25;exitDx=0;exitDy=0;" parent="1" edge="1">
          <mxGeometry relative="1" as="geometry">
            <mxPoint x="-1330" y="270" as="targetPoint" />
            <mxPoint x="-1350" y="270" as="sourcePoint" />
            <Array as="points">
              <mxPoint x="-1340" y="270" />
              <mxPoint x="-1340" y="270" />
            </Array>
          </mxGeometry>
        </mxCell>
        <mxCell id="duCD_uY5v47mJ_seT25w-111" value="Color" style="edgeLabel;html=1;align=center;verticalAlign=middle;resizable=0;points=[];labelBackgroundColor=none;" parent="duCD_uY5v47mJ_seT25w-110" vertex="1" connectable="0">
          <mxGeometry x="1" y="-3" relative="1" as="geometry">
            <mxPoint x="19" y="-3" as="offset" />
          </mxGeometry>
        </mxCell>
        <mxCell id="duCD_uY5v47mJ_seT25w-116" style="edgeStyle=orthogonalEdgeStyle;rounded=0;orthogonalLoop=1;jettySize=auto;html=1;endArrow=oval;endFill=0;exitX=0.899;exitY=0.996;exitDx=0;exitDy=0;exitPerimeter=0;" parent="1" edge="1">
          <mxGeometry relative="1" as="geometry">
            <mxPoint x="-1430" y="290" as="targetPoint" />
            <mxPoint x="-1430" y="270" as="sourcePoint" />
            <Array as="points" />
          </mxGeometry>
        </mxCell>
        <mxCell id="duCD_uY5v47mJ_seT25w-117" value="Compatibility" style="edgeLabel;html=1;align=center;verticalAlign=middle;resizable=0;points=[];labelBackgroundColor=none;" parent="duCD_uY5v47mJ_seT25w-116" vertex="1" connectable="0">
          <mxGeometry x="0.7323" y="-2" relative="1" as="geometry">
            <mxPoint x="-18" y="14" as="offset" />
          </mxGeometry>
        </mxCell>
        <mxCell id="duCD_uY5v47mJ_seT25w-121" style="edgeStyle=orthogonalEdgeStyle;rounded=0;orthogonalLoop=1;jettySize=auto;html=1;exitX=0.25;exitY=0;exitDx=0;exitDy=0;endArrow=oval;endFill=1;" parent="1" edge="1">
          <mxGeometry relative="1" as="geometry">
            <mxPoint x="-839.9425287356321" y="210" as="targetPoint" />
            <mxPoint x="-840" y="230" as="sourcePoint" />
            <Array as="points">
              <mxPoint x="-840" y="220" />
              <mxPoint x="-840" y="220" />
            </Array>
          </mxGeometry>
        </mxCell>
        <mxCell id="duCD_uY5v47mJ_seT25w-122" value="VariantID" style="edgeLabel;html=1;align=center;verticalAlign=middle;resizable=0;points=[];labelBackgroundColor=none;" parent="duCD_uY5v47mJ_seT25w-121" vertex="1" connectable="0">
          <mxGeometry x="0.8889" relative="1" as="geometry">
            <mxPoint y="-11" as="offset" />
          </mxGeometry>
        </mxCell>
        <mxCell id="duCD_uY5v47mJ_seT25w-123" style="edgeStyle=orthogonalEdgeStyle;rounded=0;orthogonalLoop=1;jettySize=auto;html=1;endArrow=oval;endFill=0;exitX=0.899;exitY=0.996;exitDx=0;exitDy=0;exitPerimeter=0;" parent="1" source="duCD_uY5v47mJ_seT25w-125" edge="1">
          <mxGeometry relative="1" as="geometry">
            <mxPoint x="-760" y="290" as="targetPoint" />
            <mxPoint x="-760.7" y="270.02" as="sourcePoint" />
            <Array as="points" />
          </mxGeometry>
        </mxCell>
        <mxCell id="duCD_uY5v47mJ_seT25w-124" value="Stock" style="edgeLabel;html=1;align=center;verticalAlign=middle;resizable=0;points=[];labelBackgroundColor=none;" parent="duCD_uY5v47mJ_seT25w-123" vertex="1" connectable="0">
          <mxGeometry x="0.7323" y="-2" relative="1" as="geometry">
            <mxPoint x="2" y="14" as="offset" />
          </mxGeometry>
        </mxCell>
        <mxCell id="duCD_uY5v47mJ_seT25w-125" value="ProductVariant" style="rounded=1;arcSize=10;whiteSpace=wrap;html=1;align=center;fillColor=none;" parent="1" vertex="1">
          <mxGeometry x="-850" y="230" width="100" height="40" as="geometry" />
        </mxCell>
        <mxCell id="duCD_uY5v47mJ_seT25w-126" style="edgeStyle=orthogonalEdgeStyle;rounded=0;orthogonalLoop=1;jettySize=auto;html=1;endArrow=oval;endFill=0;" parent="1" edge="1">
          <mxGeometry relative="1" as="geometry">
            <mxPoint x="-760" y="210" as="targetPoint" />
            <mxPoint x="-760" y="230" as="sourcePoint" />
          </mxGeometry>
        </mxCell>
        <mxCell id="duCD_uY5v47mJ_seT25w-127" value="VariantName" style="edgeLabel;html=1;align=center;verticalAlign=middle;resizable=0;points=[];labelBackgroundColor=none;" parent="duCD_uY5v47mJ_seT25w-126" vertex="1" connectable="0">
          <mxGeometry x="0.7323" y="-2" relative="1" as="geometry">
            <mxPoint x="18" y="-12" as="offset" />
          </mxGeometry>
        </mxCell>
        <mxCell id="duCD_uY5v47mJ_seT25w-128" style="edgeStyle=orthogonalEdgeStyle;rounded=0;orthogonalLoop=1;jettySize=auto;html=1;endArrow=oval;endFill=0;exitX=0.233;exitY=1.025;exitDx=0;exitDy=0;exitPerimeter=0;" parent="1" edge="1" source="duCD_uY5v47mJ_seT25w-125">
          <mxGeometry relative="1" as="geometry">
            <mxPoint x="-827" y="290" as="targetPoint" />
            <mxPoint x="-760" y="230" as="sourcePoint" />
          </mxGeometry>
        </mxCell>
        <mxCell id="duCD_uY5v47mJ_seT25w-129" value="Attributes" style="edgeLabel;html=1;align=center;verticalAlign=middle;resizable=0;points=[];labelBackgroundColor=none;" parent="duCD_uY5v47mJ_seT25w-128" vertex="1" connectable="0">
          <mxGeometry x="1" y="-3" relative="1" as="geometry">
            <mxPoint x="-5" y="10" as="offset" />
          </mxGeometry>
        </mxCell>
        <mxCell id="duCD_uY5v47mJ_seT25w-130" style="edgeStyle=orthogonalEdgeStyle;rounded=0;orthogonalLoop=1;jettySize=auto;html=1;endArrow=oval;endFill=0;exitX=1;exitY=0.25;exitDx=0;exitDy=0;" parent="1" edge="1">
          <mxGeometry relative="1" as="geometry">
            <mxPoint x="-740" y="270" as="targetPoint" />
            <mxPoint x="-760" y="270" as="sourcePoint" />
            <Array as="points">
              <mxPoint x="-750" y="270" />
              <mxPoint x="-750" y="270" />
            </Array>
          </mxGeometry>
        </mxCell>
        <mxCell id="duCD_uY5v47mJ_seT25w-131" value="AdditionalPrice" style="edgeLabel;html=1;align=center;verticalAlign=middle;resizable=0;points=[];labelBackgroundColor=none;" parent="duCD_uY5v47mJ_seT25w-130" vertex="1" connectable="0">
          <mxGeometry x="1" y="-3" relative="1" as="geometry">
            <mxPoint x="41" y="-3" as="offset" />
          </mxGeometry>
        </mxCell>
        <mxCell id="duCD_uY5v47mJ_seT25w-140" style="edgeStyle=orthogonalEdgeStyle;rounded=0;orthogonalLoop=1;jettySize=auto;html=1;exitX=0.25;exitY=0;exitDx=0;exitDy=0;endArrow=oval;endFill=1;" parent="1" edge="1">
          <mxGeometry relative="1" as="geometry">
            <mxPoint x="-1434.942528735632" y="730" as="targetPoint" />
            <mxPoint x="-1435" y="750" as="sourcePoint" />
            <Array as="points">
              <mxPoint x="-1435" y="740" />
              <mxPoint x="-1435" y="740" />
            </Array>
          </mxGeometry>
        </mxCell>
        <mxCell id="duCD_uY5v47mJ_seT25w-141" value="ImageID" style="edgeLabel;html=1;align=center;verticalAlign=middle;resizable=0;points=[];labelBackgroundColor=none;" parent="duCD_uY5v47mJ_seT25w-140" vertex="1" connectable="0">
          <mxGeometry x="0.8889" relative="1" as="geometry">
            <mxPoint y="-11" as="offset" />
          </mxGeometry>
        </mxCell>
        <mxCell id="duCD_uY5v47mJ_seT25w-142" style="edgeStyle=orthogonalEdgeStyle;rounded=0;orthogonalLoop=1;jettySize=auto;html=1;endArrow=oval;endFill=0;exitX=0.899;exitY=0.996;exitDx=0;exitDy=0;exitPerimeter=0;" parent="1" source="duCD_uY5v47mJ_seT25w-144" edge="1">
          <mxGeometry relative="1" as="geometry">
            <mxPoint x="-1355" y="810" as="targetPoint" />
            <mxPoint x="-1355.7" y="790.02" as="sourcePoint" />
            <Array as="points" />
          </mxGeometry>
        </mxCell>
        <mxCell id="duCD_uY5v47mJ_seT25w-143" value="Description" style="edgeLabel;html=1;align=center;verticalAlign=middle;resizable=0;points=[];labelBackgroundColor=none;" parent="duCD_uY5v47mJ_seT25w-142" vertex="1" connectable="0">
          <mxGeometry x="0.7323" y="-2" relative="1" as="geometry">
            <mxPoint x="22" y="14" as="offset" />
          </mxGeometry>
        </mxCell>
        <mxCell id="duCD_uY5v47mJ_seT25w-144" value="ProductImage" style="rounded=1;arcSize=10;whiteSpace=wrap;html=1;align=center;fillColor=none;" parent="1" vertex="1">
          <mxGeometry x="-1445" y="750" width="100" height="40" as="geometry" />
        </mxCell>
        <mxCell id="duCD_uY5v47mJ_seT25w-145" style="edgeStyle=orthogonalEdgeStyle;rounded=0;orthogonalLoop=1;jettySize=auto;html=1;endArrow=oval;endFill=0;" parent="1" edge="1">
          <mxGeometry relative="1" as="geometry">
            <mxPoint x="-1355" y="730" as="targetPoint" />
            <mxPoint x="-1355" y="750" as="sourcePoint" />
          </mxGeometry>
        </mxCell>
        <mxCell id="duCD_uY5v47mJ_seT25w-146" value="ImageData" style="edgeLabel;html=1;align=center;verticalAlign=middle;resizable=0;points=[];labelBackgroundColor=none;" parent="duCD_uY5v47mJ_seT25w-145" vertex="1" connectable="0">
          <mxGeometry x="0.7323" y="-2" relative="1" as="geometry">
            <mxPoint x="8" y="-12" as="offset" />
          </mxGeometry>
        </mxCell>
        <mxCell id="duCD_uY5v47mJ_seT25w-147" style="edgeStyle=orthogonalEdgeStyle;rounded=0;orthogonalLoop=1;jettySize=auto;html=1;endArrow=oval;endFill=0;exitX=1;exitY=0.25;exitDx=0;exitDy=0;" parent="1" edge="1">
          <mxGeometry relative="1" as="geometry">
            <mxPoint x="-1335" y="750" as="targetPoint" />
            <mxPoint x="-1355" y="750" as="sourcePoint" />
          </mxGeometry>
        </mxCell>
        <mxCell id="duCD_uY5v47mJ_seT25w-148" value="Mimetype" style="edgeLabel;html=1;align=center;verticalAlign=middle;resizable=0;points=[];labelBackgroundColor=none;" parent="duCD_uY5v47mJ_seT25w-147" vertex="1" connectable="0">
          <mxGeometry x="1" y="-3" relative="1" as="geometry">
            <mxPoint x="30" y="-3" as="offset" />
          </mxGeometry>
        </mxCell>
        <mxCell id="duCD_uY5v47mJ_seT25w-149" style="edgeStyle=orthogonalEdgeStyle;rounded=0;orthogonalLoop=1;jettySize=auto;html=1;endArrow=oval;endFill=0;exitX=1;exitY=0.25;exitDx=0;exitDy=0;" parent="1" edge="1">
          <mxGeometry relative="1" as="geometry">
            <mxPoint x="-1335" y="790" as="targetPoint" />
            <mxPoint x="-1355" y="790" as="sourcePoint" />
            <Array as="points">
              <mxPoint x="-1345" y="790" />
              <mxPoint x="-1345" y="790" />
            </Array>
          </mxGeometry>
        </mxCell>
        <mxCell id="duCD_uY5v47mJ_seT25w-150" value="ImageName" style="edgeLabel;html=1;align=center;verticalAlign=middle;resizable=0;points=[];labelBackgroundColor=none;" parent="duCD_uY5v47mJ_seT25w-149" vertex="1" connectable="0">
          <mxGeometry x="1" y="-3" relative="1" as="geometry">
            <mxPoint x="36" y="-3" as="offset" />
          </mxGeometry>
        </mxCell>
        <mxCell id="duCD_uY5v47mJ_seT25w-151" style="edgeStyle=orthogonalEdgeStyle;rounded=0;orthogonalLoop=1;jettySize=auto;html=1;endArrow=oval;endFill=0;exitX=0.025;exitY=0.007;exitDx=0;exitDy=0;exitPerimeter=0;" parent="1" source="duCD_uY5v47mJ_seT25w-144" edge="1">
          <mxGeometry relative="1" as="geometry">
            <mxPoint x="-1455" y="750" as="targetPoint" />
            <mxPoint x="-1475" y="760" as="sourcePoint" />
          </mxGeometry>
        </mxCell>
        <mxCell id="duCD_uY5v47mJ_seT25w-152" value="CreatedAt" style="edgeLabel;html=1;align=center;verticalAlign=middle;resizable=0;points=[];labelBackgroundColor=none;" parent="duCD_uY5v47mJ_seT25w-151" vertex="1" connectable="0">
          <mxGeometry x="0.7323" y="-2" relative="1" as="geometry">
            <mxPoint x="-32" y="2" as="offset" />
          </mxGeometry>
        </mxCell>
        <mxCell id="duCD_uY5v47mJ_seT25w-153" style="edgeStyle=orthogonalEdgeStyle;rounded=0;orthogonalLoop=1;jettySize=auto;html=1;endArrow=oval;endFill=0;exitX=0.025;exitY=0.007;exitDx=0;exitDy=0;exitPerimeter=0;" parent="1" edge="1">
          <mxGeometry relative="1" as="geometry">
            <mxPoint x="-1455" y="790" as="targetPoint" />
            <mxPoint x="-1442" y="790" as="sourcePoint" />
          </mxGeometry>
        </mxCell>
        <mxCell id="duCD_uY5v47mJ_seT25w-154" value="ThumbnailData" style="edgeLabel;html=1;align=center;verticalAlign=middle;resizable=0;points=[];labelBackgroundColor=none;" parent="duCD_uY5v47mJ_seT25w-153" vertex="1" connectable="0">
          <mxGeometry x="0.7323" y="-2" relative="1" as="geometry">
            <mxPoint x="-52" y="2" as="offset" />
          </mxGeometry>
        </mxCell>
        <mxCell id="duCD_uY5v47mJ_seT25w-155" style="edgeStyle=orthogonalEdgeStyle;rounded=0;orthogonalLoop=1;jettySize=auto;html=1;endArrow=oval;endFill=0;exitX=0.899;exitY=0.996;exitDx=0;exitDy=0;exitPerimeter=0;" parent="1" edge="1">
          <mxGeometry relative="1" as="geometry">
            <mxPoint x="-1435" y="810" as="targetPoint" />
            <mxPoint x="-1435" y="790" as="sourcePoint" />
            <Array as="points" />
          </mxGeometry>
        </mxCell>
        <mxCell id="duCD_uY5v47mJ_seT25w-156" value="SortOrder" style="edgeLabel;html=1;align=center;verticalAlign=middle;resizable=0;points=[];labelBackgroundColor=none;" parent="duCD_uY5v47mJ_seT25w-155" vertex="1" connectable="0">
          <mxGeometry x="0.7323" y="-2" relative="1" as="geometry">
            <mxPoint x="-8" y="14" as="offset" />
          </mxGeometry>
        </mxCell>
        <mxCell id="duCD_uY5v47mJ_seT25w-157" style="edgeStyle=orthogonalEdgeStyle;rounded=0;orthogonalLoop=1;jettySize=auto;html=1;endArrow=oval;endFill=0;exitX=1;exitY=0.25;exitDx=0;exitDy=0;" parent="1" edge="1">
          <mxGeometry relative="1" as="geometry">
            <mxPoint x="-1325" y="769.8800000000001" as="targetPoint" />
            <mxPoint x="-1345" y="769.8800000000001" as="sourcePoint" />
          </mxGeometry>
        </mxCell>
        <mxCell id="duCD_uY5v47mJ_seT25w-158" value="ThumbnailMimeType" style="edgeLabel;html=1;align=center;verticalAlign=middle;resizable=0;points=[];labelBackgroundColor=none;" parent="duCD_uY5v47mJ_seT25w-157" vertex="1" connectable="0">
          <mxGeometry x="1" y="-3" relative="1" as="geometry">
            <mxPoint x="55" y="-3" as="offset" />
          </mxGeometry>
        </mxCell>
        <mxCell id="duCD_uY5v47mJ_seT25w-159" style="edgeStyle=orthogonalEdgeStyle;rounded=0;orthogonalLoop=1;jettySize=auto;html=1;exitX=0.101;exitY=1;exitDx=0;exitDy=0;endArrow=oval;endFill=1;exitPerimeter=0;" parent="1" edge="1" source="duCD_uY5v47mJ_seT25w-163">
          <mxGeometry relative="1" as="geometry">
            <mxPoint x="-367" y="820" as="targetPoint" />
            <mxPoint x="-367" y="758.5200000000001" as="sourcePoint" />
            <Array as="points" />
          </mxGeometry>
        </mxCell>
        <mxCell id="duCD_uY5v47mJ_seT25w-160" value="OrderD" style="edgeLabel;html=1;align=center;verticalAlign=middle;resizable=0;points=[];labelBackgroundColor=none;" parent="duCD_uY5v47mJ_seT25w-159" vertex="1" connectable="0">
          <mxGeometry x="0.8889" relative="1" as="geometry">
            <mxPoint x="7" y="11" as="offset" />
          </mxGeometry>
        </mxCell>
        <mxCell id="nkMpFI6Zw1iPEzCYwyhi-116" style="edgeStyle=orthogonalEdgeStyle;rounded=0;orthogonalLoop=1;jettySize=auto;html=1;exitX=0.75;exitY=1;exitDx=0;exitDy=0;endArrow=oval;endFill=0;" edge="1" parent="1" source="duCD_uY5v47mJ_seT25w-163">
          <mxGeometry relative="1" as="geometry">
            <mxPoint x="-301.98496240601526" y="820" as="targetPoint" />
          </mxGeometry>
        </mxCell>
        <mxCell id="nkMpFI6Zw1iPEzCYwyhi-118" value="PaymentMethod" style="edgeLabel;html=1;align=center;verticalAlign=middle;resizable=0;points=[];labelBackgroundColor=none;" vertex="1" connectable="0" parent="nkMpFI6Zw1iPEzCYwyhi-116">
          <mxGeometry x="1" y="-2" relative="1" as="geometry">
            <mxPoint x="24" y="10" as="offset" />
          </mxGeometry>
        </mxCell>
        <mxCell id="duCD_uY5v47mJ_seT25w-163" value="Order" style="rounded=1;arcSize=10;whiteSpace=wrap;html=1;align=center;fillColor=none;" parent="1" vertex="1">
          <mxGeometry x="-377" y="758.5200000000001" width="100" height="40" as="geometry" />
        </mxCell>
        <mxCell id="duCD_uY5v47mJ_seT25w-164" style="edgeStyle=orthogonalEdgeStyle;rounded=0;orthogonalLoop=1;jettySize=auto;html=1;endArrow=oval;endFill=0;" parent="1" edge="1">
          <mxGeometry relative="1" as="geometry">
            <mxPoint x="-287" y="738.5200000000001" as="targetPoint" />
            <mxPoint x="-287" y="758.5200000000001" as="sourcePoint" />
          </mxGeometry>
        </mxCell>
        <mxCell id="duCD_uY5v47mJ_seT25w-165" value="OrderDate" style="edgeLabel;html=1;align=center;verticalAlign=middle;resizable=0;points=[];labelBackgroundColor=none;" parent="duCD_uY5v47mJ_seT25w-164" vertex="1" connectable="0">
          <mxGeometry x="0.7323" y="-2" relative="1" as="geometry">
            <mxPoint x="18" y="-12" as="offset" />
          </mxGeometry>
        </mxCell>
        <mxCell id="duCD_uY5v47mJ_seT25w-166" style="edgeStyle=orthogonalEdgeStyle;rounded=0;orthogonalLoop=1;jettySize=auto;html=1;endArrow=oval;endFill=0;exitX=1;exitY=0.25;exitDx=0;exitDy=0;" parent="1" edge="1">
          <mxGeometry relative="1" as="geometry">
            <mxPoint x="-267" y="758.5200000000001" as="targetPoint" />
            <mxPoint x="-287.0000000000001" y="758.5200000000001" as="sourcePoint" />
          </mxGeometry>
        </mxCell>
        <mxCell id="duCD_uY5v47mJ_seT25w-167" value="OrderStatus" style="edgeLabel;html=1;align=center;verticalAlign=middle;resizable=0;points=[];labelBackgroundColor=none;" parent="duCD_uY5v47mJ_seT25w-166" vertex="1" connectable="0">
          <mxGeometry x="1" y="-3" relative="1" as="geometry">
            <mxPoint x="35" y="-3" as="offset" />
          </mxGeometry>
        </mxCell>
        <mxCell id="duCD_uY5v47mJ_seT25w-168" style="edgeStyle=orthogonalEdgeStyle;rounded=0;orthogonalLoop=1;jettySize=auto;html=1;endArrow=oval;endFill=0;exitX=1;exitY=0.25;exitDx=0;exitDy=0;" parent="1" edge="1">
          <mxGeometry relative="1" as="geometry">
            <mxPoint x="-266.9999999999999" y="798.5200000000001" as="targetPoint" />
            <mxPoint x="-287" y="798.5200000000001" as="sourcePoint" />
            <Array as="points">
              <mxPoint x="-277" y="798.5200000000001" />
              <mxPoint x="-277" y="798.5200000000001" />
            </Array>
          </mxGeometry>
        </mxCell>
        <mxCell id="duCD_uY5v47mJ_seT25w-169" value="TotalAmount" style="edgeLabel;html=1;align=center;verticalAlign=middle;resizable=0;points=[];labelBackgroundColor=none;" parent="duCD_uY5v47mJ_seT25w-168" vertex="1" connectable="0">
          <mxGeometry x="1" y="-3" relative="1" as="geometry">
            <mxPoint x="33" y="-3" as="offset" />
          </mxGeometry>
        </mxCell>
        <mxCell id="duCD_uY5v47mJ_seT25w-176" style="edgeStyle=orthogonalEdgeStyle;rounded=0;orthogonalLoop=1;jettySize=auto;html=1;exitX=0.25;exitY=0;exitDx=0;exitDy=0;endArrow=oval;endFill=1;" parent="1" edge="1">
          <mxGeometry relative="1" as="geometry">
            <mxPoint x="-839.9425287356321" y="739.5" as="targetPoint" />
            <mxPoint x="-840" y="759.5" as="sourcePoint" />
            <Array as="points">
              <mxPoint x="-840" y="749.5" />
              <mxPoint x="-840" y="749.5" />
            </Array>
          </mxGeometry>
        </mxCell>
        <mxCell id="duCD_uY5v47mJ_seT25w-177" value="OrderItemID" style="edgeLabel;html=1;align=center;verticalAlign=middle;resizable=0;points=[];labelBackgroundColor=none;" parent="duCD_uY5v47mJ_seT25w-176" vertex="1" connectable="0">
          <mxGeometry x="0.8889" relative="1" as="geometry">
            <mxPoint y="-11" as="offset" />
          </mxGeometry>
        </mxCell>
        <mxCell id="nkMpFI6Zw1iPEzCYwyhi-53" value="" style="edgeStyle=orthogonalEdgeStyle;rounded=0;orthogonalLoop=1;jettySize=auto;html=1;endArrow=none;startFill=0;" edge="1" parent="1" source="duCD_uY5v47mJ_seT25w-180" target="nkMpFI6Zw1iPEzCYwyhi-52">
          <mxGeometry relative="1" as="geometry" />
        </mxCell>
        <mxCell id="nkMpFI6Zw1iPEzCYwyhi-105" value="N" style="edgeLabel;html=1;align=center;verticalAlign=middle;resizable=0;points=[];labelBackgroundColor=none;" vertex="1" connectable="0" parent="nkMpFI6Zw1iPEzCYwyhi-53">
          <mxGeometry x="-0.7973" y="1" relative="1" as="geometry">
            <mxPoint x="-8" y="-6" as="offset" />
          </mxGeometry>
        </mxCell>
        <mxCell id="nkMpFI6Zw1iPEzCYwyhi-80" style="edgeStyle=orthogonalEdgeStyle;rounded=0;orthogonalLoop=1;jettySize=auto;html=1;entryX=0.5;entryY=1;entryDx=0;entryDy=0;endArrow=none;startFill=0;" edge="1" parent="1" source="duCD_uY5v47mJ_seT25w-180" target="nkMpFI6Zw1iPEzCYwyhi-63">
          <mxGeometry relative="1" as="geometry">
            <Array as="points">
              <mxPoint x="-760" y="690" />
              <mxPoint x="-620" y="690" />
            </Array>
          </mxGeometry>
        </mxCell>
        <mxCell id="nkMpFI6Zw1iPEzCYwyhi-109" value="N" style="edgeLabel;html=1;align=center;verticalAlign=middle;resizable=0;points=[];labelBackgroundColor=none;" vertex="1" connectable="0" parent="nkMpFI6Zw1iPEzCYwyhi-80">
          <mxGeometry x="-0.9421" relative="1" as="geometry">
            <mxPoint x="6" y="4" as="offset" />
          </mxGeometry>
        </mxCell>
        <mxCell id="duCD_uY5v47mJ_seT25w-180" value="OrderItem" style="rounded=1;arcSize=10;whiteSpace=wrap;html=1;align=center;fillColor=none;" parent="1" vertex="1">
          <mxGeometry x="-850" y="759.5" width="100" height="40" as="geometry" />
        </mxCell>
        <mxCell id="duCD_uY5v47mJ_seT25w-181" style="edgeStyle=orthogonalEdgeStyle;rounded=0;orthogonalLoop=1;jettySize=auto;html=1;endArrow=oval;endFill=0;exitX=0.095;exitY=0.984;exitDx=0;exitDy=0;exitPerimeter=0;" parent="1" edge="1" source="duCD_uY5v47mJ_seT25w-180">
          <mxGeometry relative="1" as="geometry">
            <mxPoint x="-841" y="820" as="targetPoint" />
            <mxPoint x="-760" y="759.5" as="sourcePoint" />
          </mxGeometry>
        </mxCell>
        <mxCell id="duCD_uY5v47mJ_seT25w-182" value="Quantity" style="edgeLabel;html=1;align=center;verticalAlign=middle;resizable=0;points=[];labelBackgroundColor=none;" parent="duCD_uY5v47mJ_seT25w-181" vertex="1" connectable="0">
          <mxGeometry x="0.7323" y="-2" relative="1" as="geometry">
            <mxPoint x="8" y="13" as="offset" />
          </mxGeometry>
        </mxCell>
        <mxCell id="duCD_uY5v47mJ_seT25w-183" style="edgeStyle=orthogonalEdgeStyle;rounded=0;orthogonalLoop=1;jettySize=auto;html=1;endArrow=oval;endFill=0;exitX=0.898;exitY=1.01;exitDx=0;exitDy=0;exitPerimeter=0;" parent="1" edge="1" source="duCD_uY5v47mJ_seT25w-180">
          <mxGeometry relative="1" as="geometry">
            <mxPoint x="-760" y="820" as="targetPoint" />
            <mxPoint x="-760.0000000000001" y="759.5" as="sourcePoint" />
          </mxGeometry>
        </mxCell>
        <mxCell id="duCD_uY5v47mJ_seT25w-184" value="UnitPrice" style="edgeLabel;html=1;align=center;verticalAlign=middle;resizable=0;points=[];labelBackgroundColor=none;" parent="duCD_uY5v47mJ_seT25w-183" vertex="1" connectable="0">
          <mxGeometry x="1" y="-3" relative="1" as="geometry">
            <mxPoint x="8" y="10" as="offset" />
          </mxGeometry>
        </mxCell>
        <mxCell id="EqtGR64k_74HY537kPwZ-1" style="edgeStyle=orthogonalEdgeStyle;rounded=0;orthogonalLoop=1;jettySize=auto;html=1;exitX=0.25;exitY=0;exitDx=0;exitDy=0;endArrow=oval;endFill=1;" edge="1" parent="1">
          <mxGeometry relative="1" as="geometry">
            <mxPoint x="-1759.942528735632" y="210.32000000000002" as="targetPoint" />
            <mxPoint x="-1760" y="230.32000000000002" as="sourcePoint" />
            <Array as="points">
              <mxPoint x="-1760" y="220.32000000000002" />
              <mxPoint x="-1760" y="220.32000000000002" />
            </Array>
          </mxGeometry>
        </mxCell>
        <mxCell id="EqtGR64k_74HY537kPwZ-2" value="AttributeID" style="edgeLabel;html=1;align=center;verticalAlign=middle;resizable=0;points=[];labelBackgroundColor=none;" vertex="1" connectable="0" parent="EqtGR64k_74HY537kPwZ-1">
          <mxGeometry x="0.8889" relative="1" as="geometry">
            <mxPoint y="-11" as="offset" />
          </mxGeometry>
        </mxCell>
        <mxCell id="EqtGR64k_74HY537kPwZ-5" value="&lt;font style=&quot;font-size: 11px;&quot;&gt;AttributeDefinition&lt;/font&gt;" style="rounded=1;arcSize=10;whiteSpace=wrap;html=1;align=center;fillColor=none;" vertex="1" parent="1">
          <mxGeometry x="-1770" y="230.32000000000002" width="100" height="40" as="geometry" />
        </mxCell>
        <mxCell id="EqtGR64k_74HY537kPwZ-6" style="edgeStyle=orthogonalEdgeStyle;rounded=0;orthogonalLoop=1;jettySize=auto;html=1;endArrow=oval;endFill=0;" edge="1" parent="1">
          <mxGeometry relative="1" as="geometry">
            <mxPoint x="-1680" y="210.32000000000002" as="targetPoint" />
            <mxPoint x="-1680" y="230.32000000000002" as="sourcePoint" />
          </mxGeometry>
        </mxCell>
        <mxCell id="EqtGR64k_74HY537kPwZ-7" value="AttributeName" style="edgeLabel;html=1;align=center;verticalAlign=middle;resizable=0;points=[];labelBackgroundColor=none;" vertex="1" connectable="0" parent="EqtGR64k_74HY537kPwZ-6">
          <mxGeometry x="0.7323" y="-2" relative="1" as="geometry">
            <mxPoint x="18" y="-12" as="offset" />
          </mxGeometry>
        </mxCell>
        <mxCell id="EqtGR64k_74HY537kPwZ-8" style="edgeStyle=orthogonalEdgeStyle;rounded=0;orthogonalLoop=1;jettySize=auto;html=1;endArrow=oval;endFill=0;exitX=1;exitY=0.25;exitDx=0;exitDy=0;" edge="1" parent="1">
          <mxGeometry relative="1" as="geometry">
            <mxPoint x="-1660" y="230.32000000000002" as="targetPoint" />
            <mxPoint x="-1680" y="230.32000000000002" as="sourcePoint" />
          </mxGeometry>
        </mxCell>
        <mxCell id="EqtGR64k_74HY537kPwZ-9" value="DataType" style="edgeLabel;html=1;align=center;verticalAlign=middle;resizable=0;points=[];labelBackgroundColor=none;" vertex="1" connectable="0" parent="EqtGR64k_74HY537kPwZ-8">
          <mxGeometry x="1" y="-3" relative="1" as="geometry">
            <mxPoint x="30" y="-3" as="offset" />
          </mxGeometry>
        </mxCell>
        <mxCell id="EqtGR64k_74HY537kPwZ-10" style="edgeStyle=orthogonalEdgeStyle;rounded=0;orthogonalLoop=1;jettySize=auto;html=1;endArrow=oval;endFill=0;exitX=1;exitY=0.25;exitDx=0;exitDy=0;" edge="1" parent="1">
          <mxGeometry relative="1" as="geometry">
            <mxPoint x="-1660" y="270.3200000000001" as="targetPoint" />
            <mxPoint x="-1680" y="270.3200000000001" as="sourcePoint" />
            <Array as="points">
              <mxPoint x="-1670" y="270.3200000000001" />
              <mxPoint x="-1670" y="270.3200000000001" />
            </Array>
          </mxGeometry>
        </mxCell>
        <mxCell id="EqtGR64k_74HY537kPwZ-11" value="ApplicableTo" style="edgeLabel;html=1;align=center;verticalAlign=middle;resizable=0;points=[];labelBackgroundColor=none;" vertex="1" connectable="0" parent="EqtGR64k_74HY537kPwZ-10">
          <mxGeometry x="1" y="-3" relative="1" as="geometry">
            <mxPoint x="39" y="-3" as="offset" />
          </mxGeometry>
        </mxCell>
        <mxCell id="nkMpFI6Zw1iPEzCYwyhi-1" style="edgeStyle=orthogonalEdgeStyle;rounded=0;orthogonalLoop=1;jettySize=auto;html=1;exitX=0.25;exitY=0;exitDx=0;exitDy=0;endArrow=oval;endFill=1;" edge="1" parent="1">
          <mxGeometry relative="1" as="geometry">
            <mxPoint x="-1759.942528735632" y="730" as="targetPoint" />
            <mxPoint x="-1760" y="750" as="sourcePoint" />
            <Array as="points">
              <mxPoint x="-1760" y="740" />
              <mxPoint x="-1760" y="740" />
            </Array>
          </mxGeometry>
        </mxCell>
        <mxCell id="nkMpFI6Zw1iPEzCYwyhi-2" value="ReviewID" style="edgeLabel;html=1;align=center;verticalAlign=middle;resizable=0;points=[];labelBackgroundColor=none;" vertex="1" connectable="0" parent="nkMpFI6Zw1iPEzCYwyhi-1">
          <mxGeometry x="0.8889" relative="1" as="geometry">
            <mxPoint y="-11" as="offset" />
          </mxGeometry>
        </mxCell>
        <mxCell id="nkMpFI6Zw1iPEzCYwyhi-3" style="edgeStyle=orthogonalEdgeStyle;rounded=0;orthogonalLoop=1;jettySize=auto;html=1;endArrow=oval;endFill=0;exitX=0.899;exitY=0.996;exitDx=0;exitDy=0;exitPerimeter=0;" edge="1" parent="1" source="nkMpFI6Zw1iPEzCYwyhi-5">
          <mxGeometry relative="1" as="geometry">
            <mxPoint x="-1680" y="810" as="targetPoint" />
            <mxPoint x="-1680.7" y="790.02" as="sourcePoint" />
            <Array as="points" />
          </mxGeometry>
        </mxCell>
        <mxCell id="nkMpFI6Zw1iPEzCYwyhi-4" value="Rating" style="edgeLabel;html=1;align=center;verticalAlign=middle;resizable=0;points=[];labelBackgroundColor=none;" vertex="1" connectable="0" parent="nkMpFI6Zw1iPEzCYwyhi-3">
          <mxGeometry x="0.7323" y="-2" relative="1" as="geometry">
            <mxPoint x="2" y="14" as="offset" />
          </mxGeometry>
        </mxCell>
        <mxCell id="nkMpFI6Zw1iPEzCYwyhi-77" style="edgeStyle=orthogonalEdgeStyle;rounded=0;orthogonalLoop=1;jettySize=auto;html=1;entryX=0;entryY=0.5;entryDx=0;entryDy=0;endArrow=none;startFill=0;" edge="1" parent="1" source="nkMpFI6Zw1iPEzCYwyhi-5" target="nkMpFI6Zw1iPEzCYwyhi-73">
          <mxGeometry relative="1" as="geometry">
            <Array as="points">
              <mxPoint x="-1720" y="1001" />
            </Array>
          </mxGeometry>
        </mxCell>
        <mxCell id="nkMpFI6Zw1iPEzCYwyhi-114" value="N" style="edgeLabel;html=1;align=center;verticalAlign=middle;resizable=0;points=[];labelBackgroundColor=none;" vertex="1" connectable="0" parent="nkMpFI6Zw1iPEzCYwyhi-77">
          <mxGeometry x="-0.9854" y="1" relative="1" as="geometry">
            <mxPoint x="5" y="1" as="offset" />
          </mxGeometry>
        </mxCell>
        <mxCell id="nkMpFI6Zw1iPEzCYwyhi-5" value="Review" style="rounded=1;arcSize=10;whiteSpace=wrap;html=1;align=center;fillColor=none;" vertex="1" parent="1">
          <mxGeometry x="-1770" y="750" width="100" height="40" as="geometry" />
        </mxCell>
        <mxCell id="nkMpFI6Zw1iPEzCYwyhi-6" style="edgeStyle=orthogonalEdgeStyle;rounded=0;orthogonalLoop=1;jettySize=auto;html=1;endArrow=oval;endFill=0;" edge="1" parent="1">
          <mxGeometry relative="1" as="geometry">
            <mxPoint x="-1680" y="730" as="targetPoint" />
            <mxPoint x="-1680" y="750" as="sourcePoint" />
          </mxGeometry>
        </mxCell>
        <mxCell id="nkMpFI6Zw1iPEzCYwyhi-7" value="ReviewText" style="edgeLabel;html=1;align=center;verticalAlign=middle;resizable=0;points=[];labelBackgroundColor=none;" vertex="1" connectable="0" parent="nkMpFI6Zw1iPEzCYwyhi-6">
          <mxGeometry x="0.7323" y="-2" relative="1" as="geometry">
            <mxPoint x="-2" y="-12" as="offset" />
          </mxGeometry>
        </mxCell>
        <mxCell id="nkMpFI6Zw1iPEzCYwyhi-8" style="edgeStyle=orthogonalEdgeStyle;rounded=0;orthogonalLoop=1;jettySize=auto;html=1;endArrow=oval;endFill=0;exitX=1;exitY=0.25;exitDx=0;exitDy=0;" edge="1" parent="1">
          <mxGeometry relative="1" as="geometry">
            <mxPoint x="-1660" y="750" as="targetPoint" />
            <mxPoint x="-1680" y="750" as="sourcePoint" />
          </mxGeometry>
        </mxCell>
        <mxCell id="nkMpFI6Zw1iPEzCYwyhi-9" value="ReviewDate" style="edgeLabel;html=1;align=center;verticalAlign=middle;resizable=0;points=[];labelBackgroundColor=none;" vertex="1" connectable="0" parent="nkMpFI6Zw1iPEzCYwyhi-8">
          <mxGeometry x="1" y="-3" relative="1" as="geometry">
            <mxPoint x="35" y="-3" as="offset" />
          </mxGeometry>
        </mxCell>
        <mxCell id="nkMpFI6Zw1iPEzCYwyhi-10" style="edgeStyle=orthogonalEdgeStyle;rounded=0;orthogonalLoop=1;jettySize=auto;html=1;endArrow=oval;endFill=0;exitX=1;exitY=0.25;exitDx=0;exitDy=0;" edge="1" parent="1">
          <mxGeometry relative="1" as="geometry">
            <mxPoint x="-1660" y="790" as="targetPoint" />
            <mxPoint x="-1680" y="790" as="sourcePoint" />
            <Array as="points">
              <mxPoint x="-1670" y="790" />
              <mxPoint x="-1670" y="790" />
            </Array>
          </mxGeometry>
        </mxCell>
        <mxCell id="nkMpFI6Zw1iPEzCYwyhi-11" value="ModerationStatus" style="edgeLabel;html=1;align=center;verticalAlign=middle;resizable=0;points=[];labelBackgroundColor=none;" vertex="1" connectable="0" parent="nkMpFI6Zw1iPEzCYwyhi-10">
          <mxGeometry x="1" y="-3" relative="1" as="geometry">
            <mxPoint x="50" y="-3" as="offset" />
          </mxGeometry>
        </mxCell>
        <mxCell id="nkMpFI6Zw1iPEzCYwyhi-21" style="edgeStyle=orthogonalEdgeStyle;rounded=0;orthogonalLoop=1;jettySize=auto;html=1;endArrow=none;startFill=0;" edge="1" parent="1" source="nkMpFI6Zw1iPEzCYwyhi-18" target="duCD_uY5v47mJ_seT25w-25">
          <mxGeometry relative="1" as="geometry" />
        </mxCell>
        <mxCell id="nkMpFI6Zw1iPEzCYwyhi-85" value="N" style="edgeLabel;html=1;align=center;verticalAlign=middle;resizable=0;points=[];labelBackgroundColor=none;" vertex="1" connectable="0" parent="nkMpFI6Zw1iPEzCYwyhi-21">
          <mxGeometry x="0.8117" y="1" relative="1" as="geometry">
            <mxPoint x="7" y="1" as="offset" />
          </mxGeometry>
        </mxCell>
        <mxCell id="nkMpFI6Zw1iPEzCYwyhi-18" value="Has" style="rhombus;whiteSpace=wrap;html=1;fillColor=none;rounded=1;arcSize=10;" vertex="1" parent="1">
          <mxGeometry x="-370" y="339.08" width="80" height="80" as="geometry" />
        </mxCell>
        <mxCell id="nkMpFI6Zw1iPEzCYwyhi-24" style="edgeStyle=orthogonalEdgeStyle;rounded=0;orthogonalLoop=1;jettySize=auto;html=1;entryX=0;entryY=0.5;entryDx=0;entryDy=0;endArrow=none;startFill=0;" edge="1" parent="1" source="nkMpFI6Zw1iPEzCYwyhi-22" target="duCD_uY5v47mJ_seT25w-50">
          <mxGeometry relative="1" as="geometry">
            <Array as="points">
              <mxPoint x="-1160" y="880" />
              <mxPoint x="-1160" y="759" />
            </Array>
          </mxGeometry>
        </mxCell>
        <mxCell id="nkMpFI6Zw1iPEzCYwyhi-89" value="N" style="edgeLabel;html=1;align=center;verticalAlign=middle;resizable=0;points=[];labelBackgroundColor=none;" vertex="1" connectable="0" parent="nkMpFI6Zw1iPEzCYwyhi-24">
          <mxGeometry x="0.9201" relative="1" as="geometry">
            <mxPoint x="-1" y="-7" as="offset" />
          </mxGeometry>
        </mxCell>
        <mxCell id="nkMpFI6Zw1iPEzCYwyhi-22" value="&lt;font style=&quot;font-size: 10px;&quot;&gt;ParentCategory&lt;/font&gt;" style="rhombus;whiteSpace=wrap;html=1;fillColor=none;rounded=1;arcSize=10;" vertex="1" parent="1">
          <mxGeometry x="-1130" y="839" width="80" height="80" as="geometry" />
        </mxCell>
        <mxCell id="nkMpFI6Zw1iPEzCYwyhi-25" value="Belong" style="rhombus;whiteSpace=wrap;html=1;fillColor=none;rounded=1;arcSize=10;" vertex="1" parent="1">
          <mxGeometry x="-1130" y="594.5" width="80" height="80" as="geometry" />
        </mxCell>
        <mxCell id="nkMpFI6Zw1iPEzCYwyhi-27" style="edgeStyle=orthogonalEdgeStyle;rounded=0;orthogonalLoop=1;jettySize=auto;html=1;entryX=0.469;entryY=1;entryDx=0;entryDy=0;entryPerimeter=0;endArrow=none;startFill=0;" edge="1" parent="1" source="nkMpFI6Zw1iPEzCYwyhi-25" target="duCD_uY5v47mJ_seT25w-67">
          <mxGeometry relative="1" as="geometry" />
        </mxCell>
        <mxCell id="nkMpFI6Zw1iPEzCYwyhi-91" value="N" style="edgeLabel;html=1;align=center;verticalAlign=middle;resizable=0;points=[];labelBackgroundColor=none;fontSize=10;" vertex="1" connectable="0" parent="nkMpFI6Zw1iPEzCYwyhi-27">
          <mxGeometry x="0.6536" y="1" relative="1" as="geometry">
            <mxPoint x="5" y="-5" as="offset" />
          </mxGeometry>
        </mxCell>
        <mxCell id="nkMpFI6Zw1iPEzCYwyhi-31" style="edgeStyle=orthogonalEdgeStyle;rounded=0;orthogonalLoop=1;jettySize=auto;html=1;entryX=0.5;entryY=1;entryDx=0;entryDy=0;endArrow=none;startFill=0;" edge="1" parent="1" source="nkMpFI6Zw1iPEzCYwyhi-28" target="duCD_uY5v47mJ_seT25w-88">
          <mxGeometry relative="1" as="geometry" />
        </mxCell>
        <mxCell id="nkMpFI6Zw1iPEzCYwyhi-92" value="1" style="edgeLabel;html=1;align=center;verticalAlign=middle;resizable=0;points=[];labelBackgroundColor=none;" vertex="1" connectable="0" parent="nkMpFI6Zw1iPEzCYwyhi-31">
          <mxGeometry x="0.7861" y="-1" relative="1" as="geometry">
            <mxPoint x="4" as="offset" />
          </mxGeometry>
        </mxCell>
        <mxCell id="nkMpFI6Zw1iPEzCYwyhi-28" value="Can be" style="rhombus;whiteSpace=wrap;html=1;fillColor=none;rounded=1;arcSize=10;" vertex="1" parent="1">
          <mxGeometry x="-1130" y="340" width="80" height="80" as="geometry" />
        </mxCell>
        <mxCell id="nkMpFI6Zw1iPEzCYwyhi-61" style="edgeStyle=orthogonalEdgeStyle;rounded=0;orthogonalLoop=1;jettySize=auto;html=1;entryX=0.549;entryY=0.993;entryDx=0;entryDy=0;entryPerimeter=0;endArrow=none;startFill=0;" edge="1" parent="1" source="nkMpFI6Zw1iPEzCYwyhi-33" target="duCD_uY5v47mJ_seT25w-125">
          <mxGeometry relative="1" as="geometry">
            <mxPoint x="-795" y="310" as="targetPoint" />
          </mxGeometry>
        </mxCell>
        <mxCell id="nkMpFI6Zw1iPEzCYwyhi-96" value="N" style="edgeLabel;html=1;align=center;verticalAlign=middle;resizable=0;points=[];labelBackgroundColor=none;" vertex="1" connectable="0" parent="nkMpFI6Zw1iPEzCYwyhi-61">
          <mxGeometry x="0.8236" relative="1" as="geometry">
            <mxPoint x="7" y="-1" as="offset" />
          </mxGeometry>
        </mxCell>
        <mxCell id="nkMpFI6Zw1iPEzCYwyhi-33" value="Has" style="rhombus;whiteSpace=wrap;html=1;fillColor=none;" vertex="1" parent="1">
          <mxGeometry x="-835" y="350.5" width="80" height="80" as="geometry" />
        </mxCell>
        <mxCell id="nkMpFI6Zw1iPEzCYwyhi-60" style="edgeStyle=orthogonalEdgeStyle;rounded=0;orthogonalLoop=1;jettySize=auto;html=1;entryX=0.5;entryY=1;entryDx=0;entryDy=0;endArrow=none;startFill=0;" edge="1" parent="1" source="nkMpFI6Zw1iPEzCYwyhi-36" target="duCD_uY5v47mJ_seT25w-105">
          <mxGeometry relative="1" as="geometry" />
        </mxCell>
        <mxCell id="nkMpFI6Zw1iPEzCYwyhi-94" value="1" style="edgeLabel;html=1;align=center;verticalAlign=middle;resizable=0;points=[];labelBackgroundColor=none;" vertex="1" connectable="0" parent="nkMpFI6Zw1iPEzCYwyhi-60">
          <mxGeometry x="0.7304" relative="1" as="geometry">
            <mxPoint x="5" y="-2" as="offset" />
          </mxGeometry>
        </mxCell>
        <mxCell id="nkMpFI6Zw1iPEzCYwyhi-36" value="Can be" style="rhombus;whiteSpace=wrap;html=1;fillColor=none;" vertex="1" parent="1">
          <mxGeometry x="-1430" y="340" width="80" height="80" as="geometry" />
        </mxCell>
        <mxCell id="nkMpFI6Zw1iPEzCYwyhi-40" value="Include" style="rhombus;whiteSpace=wrap;html=1;fillColor=none;" vertex="1" parent="1">
          <mxGeometry x="-1430" y="594.5" width="80" height="80" as="geometry" />
        </mxCell>
        <mxCell id="nkMpFI6Zw1iPEzCYwyhi-45" style="edgeStyle=orthogonalEdgeStyle;rounded=0;orthogonalLoop=1;jettySize=auto;html=1;entryX=0.556;entryY=0.011;entryDx=0;entryDy=0;entryPerimeter=0;endArrow=none;startFill=0;" edge="1" parent="1" source="nkMpFI6Zw1iPEzCYwyhi-40" target="duCD_uY5v47mJ_seT25w-144">
          <mxGeometry relative="1" as="geometry" />
        </mxCell>
        <mxCell id="nkMpFI6Zw1iPEzCYwyhi-98" value="N" style="edgeLabel;html=1;align=center;verticalAlign=middle;resizable=0;points=[];labelBackgroundColor=none;" vertex="1" connectable="0" parent="nkMpFI6Zw1iPEzCYwyhi-45">
          <mxGeometry x="0.7442" relative="1" as="geometry">
            <mxPoint x="5" y="1" as="offset" />
          </mxGeometry>
        </mxCell>
        <mxCell id="nkMpFI6Zw1iPEzCYwyhi-55" style="edgeStyle=orthogonalEdgeStyle;rounded=0;orthogonalLoop=1;jettySize=auto;html=1;entryX=0.5;entryY=0;entryDx=0;entryDy=0;endArrow=none;startFill=0;" edge="1" parent="1" source="nkMpFI6Zw1iPEzCYwyhi-46" target="duCD_uY5v47mJ_seT25w-163">
          <mxGeometry relative="1" as="geometry" />
        </mxCell>
        <mxCell id="nkMpFI6Zw1iPEzCYwyhi-100" value="N" style="edgeLabel;html=1;align=center;verticalAlign=middle;resizable=0;points=[];labelBackgroundColor=none;" vertex="1" connectable="0" parent="nkMpFI6Zw1iPEzCYwyhi-55">
          <mxGeometry x="0.7175" relative="1" as="geometry">
            <mxPoint x="5" y="3" as="offset" />
          </mxGeometry>
        </mxCell>
        <mxCell id="nkMpFI6Zw1iPEzCYwyhi-46" value="Make" style="rhombus;whiteSpace=wrap;html=1;fillColor=none;rounded=1;arcSize=10;" vertex="1" parent="1">
          <mxGeometry x="-367" y="604.08" width="80" height="80" as="geometry" />
        </mxCell>
        <mxCell id="nkMpFI6Zw1iPEzCYwyhi-49" value="Refer" style="rhombus;whiteSpace=wrap;html=1;fillColor=none;" vertex="1" parent="1">
          <mxGeometry x="-835" y="605" width="80" height="80" as="geometry" />
        </mxCell>
        <mxCell id="nkMpFI6Zw1iPEzCYwyhi-51" style="edgeStyle=orthogonalEdgeStyle;rounded=0;orthogonalLoop=1;jettySize=auto;html=1;endArrow=none;startFill=0;" edge="1" parent="1" source="nkMpFI6Zw1iPEzCYwyhi-49">
          <mxGeometry relative="1" as="geometry">
            <mxPoint x="-795" y="759" as="targetPoint" />
          </mxGeometry>
        </mxCell>
        <mxCell id="nkMpFI6Zw1iPEzCYwyhi-107" value="N" style="edgeLabel;html=1;align=center;verticalAlign=middle;resizable=0;points=[];labelBorderColor=none;labelBackgroundColor=none;" vertex="1" connectable="0" parent="nkMpFI6Zw1iPEzCYwyhi-51">
          <mxGeometry x="0.7966" relative="1" as="geometry">
            <mxPoint x="5" y="1" as="offset" />
          </mxGeometry>
        </mxCell>
        <mxCell id="nkMpFI6Zw1iPEzCYwyhi-54" style="edgeStyle=orthogonalEdgeStyle;rounded=0;orthogonalLoop=1;jettySize=auto;html=1;entryX=0;entryY=0.5;entryDx=0;entryDy=0;endArrow=none;startFill=0;" edge="1" parent="1" source="nkMpFI6Zw1iPEzCYwyhi-52" target="duCD_uY5v47mJ_seT25w-163">
          <mxGeometry relative="1" as="geometry" />
        </mxCell>
        <mxCell id="nkMpFI6Zw1iPEzCYwyhi-104" value="1" style="edgeLabel;html=1;align=center;verticalAlign=middle;resizable=0;points=[];labelBackgroundColor=none;" vertex="1" connectable="0" parent="nkMpFI6Zw1iPEzCYwyhi-54">
          <mxGeometry x="0.6518" y="1" relative="1" as="geometry">
            <mxPoint x="18" y="-6" as="offset" />
          </mxGeometry>
        </mxCell>
        <mxCell id="nkMpFI6Zw1iPEzCYwyhi-52" value="Contain" style="rhombus;whiteSpace=wrap;html=1;fillColor=none;rounded=1;arcSize=10;" vertex="1" parent="1">
          <mxGeometry x="-600" y="739.5" width="80" height="80" as="geometry" />
        </mxCell>
        <mxCell id="nkMpFI6Zw1iPEzCYwyhi-56" style="edgeStyle=orthogonalEdgeStyle;rounded=0;orthogonalLoop=1;jettySize=auto;html=1;entryX=0.53;entryY=0.999;entryDx=0;entryDy=0;entryPerimeter=0;endArrow=none;startFill=0;" edge="1" parent="1" source="nkMpFI6Zw1iPEzCYwyhi-46" target="duCD_uY5v47mJ_seT25w-1">
          <mxGeometry relative="1" as="geometry" />
        </mxCell>
        <mxCell id="nkMpFI6Zw1iPEzCYwyhi-101" value="1" style="edgeLabel;html=1;align=center;verticalAlign=middle;resizable=0;points=[];labelBackgroundColor=none;" vertex="1" connectable="0" parent="nkMpFI6Zw1iPEzCYwyhi-56">
          <mxGeometry x="0.8229" relative="1" as="geometry">
            <mxPoint x="4" as="offset" />
          </mxGeometry>
        </mxCell>
        <mxCell id="nkMpFI6Zw1iPEzCYwyhi-63" value="Refer" style="rhombus;whiteSpace=wrap;html=1;fillColor=none;" vertex="1" parent="1">
          <mxGeometry x="-660" y="469.08" width="80" height="80" as="geometry" />
        </mxCell>
        <mxCell id="nkMpFI6Zw1iPEzCYwyhi-69" style="edgeStyle=orthogonalEdgeStyle;rounded=0;orthogonalLoop=1;jettySize=auto;html=1;entryX=0.5;entryY=1;entryDx=0;entryDy=0;endArrow=none;startFill=0;" edge="1" parent="1" source="nkMpFI6Zw1iPEzCYwyhi-67" target="EqtGR64k_74HY537kPwZ-5">
          <mxGeometry relative="1" as="geometry" />
        </mxCell>
        <mxCell id="nkMpFI6Zw1iPEzCYwyhi-110" value="N" style="edgeLabel;html=1;align=center;verticalAlign=middle;resizable=0;points=[];labelBackgroundColor=none;" vertex="1" connectable="0" parent="nkMpFI6Zw1iPEzCYwyhi-69">
          <mxGeometry x="0.5904" y="-2" relative="1" as="geometry">
            <mxPoint x="4" y="-6" as="offset" />
          </mxGeometry>
        </mxCell>
        <mxCell id="nkMpFI6Zw1iPEzCYwyhi-67" value="Has" style="rhombus;whiteSpace=wrap;html=1;fillColor=none;" vertex="1" parent="1">
          <mxGeometry x="-1760" y="340" width="80" height="80" as="geometry" />
        </mxCell>
        <mxCell id="nkMpFI6Zw1iPEzCYwyhi-68" style="edgeStyle=orthogonalEdgeStyle;rounded=0;orthogonalLoop=1;jettySize=auto;html=1;entryX=0.5;entryY=1;entryDx=0;entryDy=0;endArrow=none;startFill=0;" edge="1" parent="1" source="duCD_uY5v47mJ_seT25w-67" target="nkMpFI6Zw1iPEzCYwyhi-67">
          <mxGeometry relative="1" as="geometry">
            <mxPoint x="-1650" y="420" as="targetPoint" />
            <Array as="points">
              <mxPoint x="-1130" y="460" />
              <mxPoint x="-1720" y="460" />
            </Array>
          </mxGeometry>
        </mxCell>
        <mxCell id="nkMpFI6Zw1iPEzCYwyhi-111" value="N" style="edgeLabel;html=1;align=center;verticalAlign=middle;resizable=0;points=[];labelBackgroundColor=none;" vertex="1" connectable="0" parent="nkMpFI6Zw1iPEzCYwyhi-68">
          <mxGeometry x="-0.965" y="1" relative="1" as="geometry">
            <mxPoint x="6" y="3" as="offset" />
          </mxGeometry>
        </mxCell>
        <mxCell id="nkMpFI6Zw1iPEzCYwyhi-72" style="edgeStyle=orthogonalEdgeStyle;rounded=0;orthogonalLoop=1;jettySize=auto;html=1;entryX=0.5;entryY=0;entryDx=0;entryDy=0;endArrow=none;startFill=0;" edge="1" parent="1" source="nkMpFI6Zw1iPEzCYwyhi-70" target="nkMpFI6Zw1iPEzCYwyhi-5">
          <mxGeometry relative="1" as="geometry" />
        </mxCell>
        <mxCell id="nkMpFI6Zw1iPEzCYwyhi-112" value="N" style="edgeLabel;html=1;align=center;verticalAlign=middle;resizable=0;points=[];labelBorderColor=none;labelBackgroundColor=none;" vertex="1" connectable="0" parent="nkMpFI6Zw1iPEzCYwyhi-72">
          <mxGeometry x="0.6886" y="1" relative="1" as="geometry">
            <mxPoint x="5" y="4" as="offset" />
          </mxGeometry>
        </mxCell>
        <mxCell id="nkMpFI6Zw1iPEzCYwyhi-70" value="Relate" style="rhombus;whiteSpace=wrap;html=1;fillColor=none;" vertex="1" parent="1">
          <mxGeometry x="-1760" y="594.5" width="80" height="80" as="geometry" />
        </mxCell>
        <mxCell id="nkMpFI6Zw1iPEzCYwyhi-75" style="edgeStyle=orthogonalEdgeStyle;rounded=0;orthogonalLoop=1;jettySize=auto;html=1;entryX=1;entryY=0.5;entryDx=0;entryDy=0;endArrow=none;startFill=0;" edge="1" parent="1" source="nkMpFI6Zw1iPEzCYwyhi-73" target="duCD_uY5v47mJ_seT25w-1">
          <mxGeometry relative="1" as="geometry">
            <mxPoint x="-280" y="449.99999999999994" as="targetPoint" />
            <Array as="points">
              <mxPoint x="-120" y="1001" />
              <mxPoint x="-120" y="510" />
              <mxPoint x="-280" y="510" />
            </Array>
          </mxGeometry>
        </mxCell>
        <mxCell id="nkMpFI6Zw1iPEzCYwyhi-115" value="1" style="edgeLabel;html=1;align=center;verticalAlign=middle;resizable=0;points=[];fontColor=default;labelBackgroundColor=none;" vertex="1" connectable="0" parent="nkMpFI6Zw1iPEzCYwyhi-75">
          <mxGeometry x="0.9881" y="-1" relative="1" as="geometry">
            <mxPoint x="-5" y="-4" as="offset" />
          </mxGeometry>
        </mxCell>
        <mxCell id="nkMpFI6Zw1iPEzCYwyhi-73" value="Provide" style="rhombus;whiteSpace=wrap;html=1;fillColor=none;" vertex="1" parent="1">
          <mxGeometry x="-1127" y="960.92" width="80" height="80" as="geometry" />
        </mxCell>
        <mxCell id="nkMpFI6Zw1iPEzCYwyhi-83" style="edgeStyle=orthogonalEdgeStyle;rounded=0;orthogonalLoop=1;jettySize=auto;html=1;entryX=0;entryY=0.5;entryDx=0;entryDy=0;endArrow=none;startFill=0;" edge="1" parent="1" source="nkMpFI6Zw1iPEzCYwyhi-79" target="duCD_uY5v47mJ_seT25w-25">
          <mxGeometry relative="1" as="geometry">
            <Array as="points">
              <mxPoint x="-520" y="249" />
            </Array>
          </mxGeometry>
        </mxCell>
        <mxCell id="nkMpFI6Zw1iPEzCYwyhi-102" value="1" style="edgeLabel;html=1;align=center;verticalAlign=middle;resizable=0;points=[];labelBackgroundColor=none;" vertex="1" connectable="0" parent="nkMpFI6Zw1iPEzCYwyhi-83">
          <mxGeometry x="0.9814" relative="1" as="geometry">
            <mxPoint x="-2" y="-6" as="offset" />
          </mxGeometry>
        </mxCell>
        <mxCell id="nkMpFI6Zw1iPEzCYwyhi-79" value="Has" style="rhombus;whiteSpace=wrap;html=1;fillColor=none;" vertex="1" parent="1">
          <mxGeometry x="-560" y="470" width="80" height="80" as="geometry" />
        </mxCell>
        <mxCell id="nkMpFI6Zw1iPEzCYwyhi-81" style="edgeStyle=orthogonalEdgeStyle;rounded=0;orthogonalLoop=1;jettySize=auto;html=1;entryX=1.001;entryY=0.408;entryDx=0;entryDy=0;entryPerimeter=0;endArrow=none;startFill=0;" edge="1" parent="1" source="nkMpFI6Zw1iPEzCYwyhi-63" target="duCD_uY5v47mJ_seT25w-125">
          <mxGeometry relative="1" as="geometry">
            <Array as="points">
              <mxPoint x="-620" y="246" />
              <mxPoint x="-750" y="246" />
            </Array>
          </mxGeometry>
        </mxCell>
        <mxCell id="nkMpFI6Zw1iPEzCYwyhi-108" value="1" style="edgeLabel;html=1;align=center;verticalAlign=middle;resizable=0;points=[];labelBackgroundColor=none;" vertex="1" connectable="0" parent="nkMpFI6Zw1iPEzCYwyhi-81">
          <mxGeometry x="0.9521" y="-1" relative="1" as="geometry">
            <mxPoint x="-2" y="-6" as="offset" />
          </mxGeometry>
        </mxCell>
        <mxCell id="nkMpFI6Zw1iPEzCYwyhi-82" style="edgeStyle=orthogonalEdgeStyle;rounded=0;orthogonalLoop=1;jettySize=auto;html=1;entryX=0.5;entryY=1;entryDx=0;entryDy=0;endArrow=none;startFill=0;" edge="1" parent="1" source="duCD_uY5v47mJ_seT25w-163" target="nkMpFI6Zw1iPEzCYwyhi-79">
          <mxGeometry relative="1" as="geometry">
            <Array as="points">
              <mxPoint x="-360" y="690" />
              <mxPoint x="-520" y="690" />
            </Array>
          </mxGeometry>
        </mxCell>
        <mxCell id="nkMpFI6Zw1iPEzCYwyhi-103" value="N" style="edgeLabel;html=1;align=center;verticalAlign=middle;resizable=0;points=[];labelBackgroundColor=none;" vertex="1" connectable="0" parent="nkMpFI6Zw1iPEzCYwyhi-82">
          <mxGeometry x="-0.9483" y="1" relative="1" as="geometry">
            <mxPoint x="-6" y="2" as="offset" />
          </mxGeometry>
        </mxCell>
      </root>
    </mxGraphModel>
  </diagram>
  <diagram id="Ykki6VLC6ngo_6GT3MuX" name="Pagina-2">
    <mxGraphModel dx="783" dy="1045" grid="1" gridSize="10" guides="1" tooltips="1" connect="1" arrows="1" fold="1" page="1" pageScale="1" pageWidth="827" pageHeight="1169" math="0" shadow="0">
      <root>
        <mxCell id="0" />
        <mxCell id="1" parent="0" />
      </root>
    </mxGraphModel>
  </diagram>
</mxfile>
